<svg version="1.1" xmlns="http://www.w3.org/2000/svg" xmlns:xlink="http://www.w3.org/1999/xlink" width="377.93303" height="253.19513" viewBox="0,0,377.93303,253.19513"><g transform="translate(-145.96414,-37.04817)"><g stroke="#000000" stroke-width="0" stroke-miterlimit="10"><path d="M304.13168,290.2433v-31.73664h31.73664v31.73664z" fill="#00a759"/><path d="M272.07286,290.2433v-31.73664h31.73664v31.73664z" fill="#00a759"/><path d="M240.60227,258.77271v-31.73664h31.73664v31.73664z" fill="#00a759"/><path d="M209.13168,227.008v-31.73664h31.73664v31.73664z" fill="#00a759"/><path d="M209.13168,196.41976v-31.73664h31.73664v31.73664z" fill="#00a759"/><path d="M240.60227,164.94918v-31.73664h31.73664v31.73664z" fill="#00a759"/><path d="M240.60227,134.65506v-31.73664h31.73664v31.73664z" fill="#00a759"/><path d="M272.07286,102.59623v-31.73664h31.73664v31.73664z" fill="#00a759"/><path d="M304.13168,133.34258v-31.73664h31.73664v31.73664z" fill="#00a759"/><path d="M304.13168,101.77151v-31.73664h31.73664v31.73664z" fill="#00a759"/><path d="M398.68848,166.42769v-31.73664h31.73664v31.73664z" fill="#00a759"/><path d="M398.68848,134.55188v-31.73664h31.73664v31.73664z" fill="#b000bd"/><path d="M367.66109,259.06682v-31.73664h31.73664v31.73664z" fill="#00a759"/><path d="M333.83756,289.06682v-31.73664h31.73664v31.73664z" fill="#00a759"/><path d="M398.68848,259.61477v-31.73664h31.73664v31.73664z" fill="#00a759"/><path d="M430.73522,260.16271v-31.73664h31.73664v31.73664z" fill="#00a759"/><path d="M398.68848,259.61476v-31.73664h31.73664v31.73664z" fill="#00a759"/><path d="M367.66109,133.05629v-31.73664h31.73664v31.73664z" fill="#00a759"/><path d="M460.08942,104.27623v-31.73664h31.73664v31.73664z" fill="#00a759"/><path d="M492.16053,133.34258v-31.73664h31.73664v31.73664z" fill="#00a759"/><path d="M492.16053,163.78289v-31.73664h31.73664v31.73664z" fill="#00a759"/><path d="M492.16053,193.89705v-31.73664h31.73664v31.73664z" fill="#00a759"/><path d="M460.08942,227.27278v-31.73664h31.73664v31.73664z" fill="#00a759"/><path d="M431.68488,136.34175v-31.73664h31.73664v31.73664z" fill="#00a759"/><path d="M333.83756,68.78481v-31.73664h31.73664v31.73664z" fill="#00a759"/><path d="M367.66109,70.90732v-31.73664h31.73664v31.73664z" fill="#00a759"/><path d="M398.68848,72.10864v-31.73664h31.73664v31.73664z" fill="#00a759"/><path d="M430.73522,101.8v-31.73664h31.73664v31.73664z" fill="#00a759"/><path d="M145.96414,129.34771h31.73664v31.73664h-31.73664z" fill="#6f0000"/></g></g></svg>