<svg version="1.1" xmlns="http://www.w3.org/2000/svg" xmlns:xlink="http://www.w3.org/1999/xlink" width="1271.10871" height="1016.9074" viewBox="0,0,1271.10871,1016.9074"><g transform="translate(299.97875,407.04892)"><g fill="#00a759" stroke="#000000" stroke-width="2" stroke-miterlimit="10"><g><path d="M304.13168,195.86833v-31.73664h31.73664v31.73664z"/><path d="M304.13168,227.33892v-31.73664h31.73664v31.73664z"/><path d="M304.13168,258.80951v-31.73664h31.73664v31.73664z"/><path d="M304.13168,290.2801v-31.73664h31.73664v31.73664z"/><path d="M304.13168,71.13859v-31.73664h31.73664v31.73664z"/><path d="M304.13168,102.60919v-31.73664h31.73664v31.73664z"/><path d="M304.13168,134.07978v-31.73664h31.73664v31.73664z"/><path d="M304.13168,165.55037v-31.73664h31.73664v31.73664z"/><path d="M335.92935,196.151v-31.73664h31.73664v31.73664z"/><path d="M335.92935,227.62159v-31.73664h31.73664v31.73664z"/><path d="M335.92935,259.09217v-31.73664h31.73664v31.73664z"/><path d="M335.92935,290.56276v-31.73664h31.73664v31.73664z"/><path d="M335.92935,71.42127v-31.73664h31.73664v31.73664z"/><path d="M335.92935,102.89186v-31.73664h31.73664v31.73664z"/><path d="M335.92935,134.36244v-31.73664h31.73664v31.73664z"/><path d="M335.92935,165.83301v-31.73664h31.73664v31.73664z"/><path d="M367.91546,196.40105v-31.73664h31.73664v31.73664z"/><path d="M367.91546,227.87164v-31.73664h31.73664v31.73664z"/><path d="M367.91546,259.34223v-31.73664h31.73664v31.73664z"/><path d="M367.91546,290.81282v-31.73664h31.73664v31.73664z"/><path d="M367.91546,71.67132v-31.73664h31.73664v31.73664z"/><path d="M367.91546,103.14191v-31.73664h31.73664v31.73664z"/><path d="M367.91546,134.6125v-31.73664h31.73664v31.73664z"/><path d="M367.91546,166.08309v-31.73664h31.73664v31.73664z"/><path d="M399.71313,196.68372v-31.73664h31.73664v31.73664z"/><path d="M399.71313,228.15431v-31.73664h31.73664v31.73664z"/><path d="M399.71313,259.62489v-31.73664h31.73664v31.73664z"/><path d="M399.71313,291.09549v-31.73664h31.73664v31.73664z"/><path d="M399.71313,71.95399v-31.73664h31.73664v31.73664z"/><path d="M399.71313,103.42458v-31.73664h31.73664v31.73664z"/><path d="M399.71313,134.89515v-31.73664h31.73664v31.73664z"/><path d="M399.71313,166.36576v-31.73664h31.73664v31.73664z"/><path d="M431.47784,196.97784v-31.73664h31.73664v31.73664z"/><path d="M431.47784,228.44843v-31.73664h31.73664v31.73664z"/><path d="M431.47784,259.91902v-31.73664h31.73664v31.73664z"/><path d="M431.47784,291.38961v-31.73664h31.73664v31.73664z"/><path d="M431.47784,72.24811v-31.73664h31.73664v31.73664z"/><path d="M431.47784,103.7187v-31.73664h31.73664v31.73664z"/><path d="M431.47784,135.18929v-31.73664h31.73664v31.73664z"/><path d="M431.47784,166.65988v-31.73664h31.73664v31.73664z"/><path d="M208.62975,195.27861v-31.73664h31.73664v31.73664z"/><path d="M208.62975,226.7492v-31.73664h31.73664v31.73664z"/><path d="M208.62975,258.21978v-31.73664h31.73664v31.73664z"/><path d="M208.62975,289.69037v-31.73664h31.73664v31.73664z"/><path d="M208.62975,70.54887v-31.73664h31.73664v31.73664z"/><path d="M208.62975,102.01947v-31.73664h31.73664v31.73664z"/><path d="M208.62975,133.49005v-31.73664h31.73664v31.73664z"/><path d="M208.62975,164.96064v-31.73664h31.73664v31.73664z"/><path d="M240.42742,195.56128v-31.73664h31.73664v31.73664z"/><path d="M240.42742,227.03187v-31.73664h31.73664v31.73664z"/><path d="M240.42742,258.50245v-31.73664h31.73664v31.73664z"/><path d="M240.42742,289.97304v-31.73664h31.73664v31.73664z"/><path d="M240.42742,70.83155v-31.73664h31.73664v31.73664z"/><path d="M240.42742,102.30214v-31.73664h31.73664v31.73664z"/><path d="M240.42742,133.77272v-31.73664h31.73664v31.73664z"/><path d="M240.42742,165.24329v-31.73664h31.73664v31.73664z"/><path d="M272.19212,195.8554v-31.73664h31.73664v31.73664z"/><path d="M272.19212,227.32599v-31.73664h31.73664v31.73664z"/><path d="M272.19212,258.79657v-31.73664h31.73664v31.73664z"/><path d="M272.19212,290.26716v-31.73664h31.73664v31.73664z"/><path d="M272.19212,71.12565v-31.73664h31.73664v31.73664z"/><path d="M272.19212,102.59626v-31.73664h31.73664v31.73664z"/><path d="M272.19212,134.06684v-31.73664h31.73664v31.73664z"/><path d="M272.19212,165.53743v-31.73664h31.73664v31.73664z"/><path d="M556.84585,197.13621v-31.73664h31.73664v31.73664z"/><path d="M556.84585,228.6068v-31.73664h31.73664v31.73664z"/><path d="M556.84585,260.07739v-31.73664h31.73664v31.73664z"/><path d="M556.84585,291.54796v-31.73664h31.73664v31.73664z"/><path d="M556.84585,72.40648v-31.73664h31.73664v31.73664z"/><path d="M556.84585,103.87707v-31.73664h31.73664v31.73664z"/><path d="M556.84585,135.34766v-31.73664h31.73664v31.73664z"/><path d="M556.84585,166.81823v-31.73664h31.73664v31.73664z"/><path d="M588.64352,197.41888v-31.73664h31.73664v31.73664z"/><path d="M588.64352,228.88947v-31.73664h31.73664v31.73664z"/><path d="M588.64352,260.36005v-31.73664h31.73664v31.73664z"/><path d="M588.64352,291.83063v-31.73664h31.73664v31.73664z"/><path d="M588.64352,72.68913v-31.73664h31.73664v31.73664z"/><path d="M588.64352,104.15974v-31.73664h31.73664v31.73664z"/><path d="M588.64352,135.63032v-31.73664h31.73664v31.73664z"/><path d="M588.64352,167.10091v-31.73664h31.73664v31.73664z"/><path d="M620.62963,197.66893v-31.73664h31.73664v31.73664z"/><path d="M620.62963,229.13952v-31.73664h31.73664v31.73664z"/><path d="M620.62963,260.6101v-31.73664h31.73664v31.73664z"/><path d="M620.62963,292.0807v-31.73664h31.73664v31.73664z"/><path d="M620.62963,72.93918v-31.73664h31.73664v31.73664z"/><path d="M620.62963,104.40979v-31.73664h31.73664v31.73664z"/><path d="M620.62963,135.88037v-31.73664h31.73664v31.73664z"/><path d="M620.62963,167.35097v-31.73664h31.73664v31.73664z"/><path d="M652.42729,197.9516v-31.73664h31.73664v31.73664z"/><path d="M652.42729,229.42219v-31.73664h31.73664v31.73664z"/><path d="M652.42729,260.89277v-31.73664h31.73664v31.73664z"/><path d="M652.42729,292.36337v-31.73664h31.73664v31.73664z"/><path d="M652.42729,73.22186v-31.73664h31.73664v31.73664z"/><path d="M652.42729,104.69246v-31.73664h31.73664v31.73664z"/><path d="M652.42729,136.16305v-31.73664h31.73664v31.73664z"/><path d="M652.42729,167.63364v-31.73664h31.73664v31.73664z"/><path d="M684.19201,198.24572v-31.73664h31.73664v31.73664z"/><path d="M684.19201,229.71631v-31.73664h31.73664v31.73664z"/><path d="M684.19201,261.1869v-31.73664h31.73664v31.73664z"/><path d="M684.19201,292.65747v-31.73664h31.73664v31.73664z"/><path d="M684.19201,73.51599v-31.73664h31.73664v31.73664z"/><path d="M684.19201,104.98658v-31.73664h31.73664v31.73664z"/><path d="M684.19201,136.45717v-31.73664h31.73664v31.73664z"/><path d="M684.19201,167.92776v-31.73664h31.73664v31.73664z"/><path d="M461.34392,196.54649v-31.73664h31.73664v31.73664z"/><path d="M461.34392,228.01708v-31.73664h31.73664v31.73664z"/><path d="M461.34392,259.48766v-31.73664h31.73664v31.73664z"/><path d="M461.34392,290.95824v-31.73664h31.73664v31.73664z"/><path d="M461.34392,71.81676v-31.73664h31.73664v31.73664z"/><path d="M461.34392,103.28735v-31.73664h31.73664v31.73664z"/><path d="M461.34392,134.75793v-31.73664h31.73664v31.73664z"/><path d="M461.34392,166.22851v-31.73664h31.73664v31.73664z"/><path d="M493.14159,196.82916v-31.73664h31.73664v31.73664z"/><path d="M493.14159,228.29975v-31.73664h31.73664v31.73664z"/><path d="M493.14159,259.77033v-31.73664h31.73664v31.73664z"/><path d="M493.14159,291.24091v-31.73664h31.73664v31.73664z"/><path d="M493.14159,72.09941v-31.73664h31.73664v31.73664z"/><path d="M493.14159,103.57002v-31.73664h31.73664v31.73664z"/><path d="M493.14159,135.0406v-31.73664h31.73664v31.73664z"/><path d="M493.14159,166.51119v-31.73664h31.73664v31.73664z"/><path d="M524.90629,197.12328v-31.73664h31.73664v31.73664z"/><path d="M524.90629,228.59387v-31.73664h31.73664v31.73664z"/><path d="M524.90629,260.06444v-31.73664h31.73664v31.73664z"/><path d="M524.90629,291.53504v-31.73664h31.73664v31.73664z"/><path d="M524.90629,72.39355v-31.73664h31.73664v31.73664z"/><path d="M524.90629,103.86414v-31.73664h31.73664v31.73664z"/><path d="M524.90629,135.33471v-31.73664h31.73664v31.73664z"/><path d="M524.90629,166.80531v-31.73664h31.73664v31.73664z"/><path d="M-203.47682,192.62996v-31.73664h31.73664v31.73664z"/><path d="M-203.47682,224.10055v-31.73664h31.73664v31.73664z"/><path d="M-203.47682,255.57114v-31.73664h31.73664v31.73664z"/><path d="M-203.47682,287.04173v-31.73664h31.73664v31.73664z"/><path d="M-203.47682,67.90023v-31.73664h31.73664v31.73664z"/><path d="M-203.47682,99.37082v-31.73664h31.73664v31.73664z"/><path d="M-203.47682,130.84141v-31.73664h31.73664v31.73664z"/><path d="M-203.47682,162.312v-31.73664h31.73664v31.73664z"/><path d="M-171.67915,192.91263v-31.73664h31.73664v31.73664z"/><path d="M-171.67915,224.38322v-31.73664h31.73664v31.73664z"/><path d="M-171.67915,255.8538v-31.73664h31.73664v31.73664z"/><path d="M-171.67915,287.32439v-31.73664h31.73664v31.73664z"/><path d="M-171.67915,68.1829v-31.73664h31.73664v31.73664z"/><path d="M-171.67915,99.65349v-31.73664h31.73664v31.73664z"/><path d="M-171.67915,131.12407v-31.73664h31.73664v31.73664z"/><path d="M-171.67915,162.59465v-31.73664h31.73664v31.73664z"/><path d="M-139.69304,193.16268v-31.73664h31.73664v31.73664z"/><path d="M-139.69304,224.63327v-31.73664h31.73664v31.73664z"/><path d="M-139.69304,256.10386v-31.73664h31.73664v31.73664z"/><path d="M-139.69304,287.57445v-31.73664h31.73664v31.73664z"/><path d="M-139.69304,68.43295v-31.73664h31.73664v31.73664z"/><path d="M-139.69304,99.90354v-31.73664h31.73664v31.73664z"/><path d="M-139.69304,131.37413v-31.73664h31.73664v31.73664z"/><path d="M-139.69304,162.84472v-31.73664h31.73664v31.73664z"/><path d="M-107.89537,193.44535v-31.73664h31.73664v31.73664z"/><path d="M-107.89537,224.91594v-31.73664h31.73664v31.73664z"/><path d="M-107.89537,256.38653v-31.73664h31.73664v31.73664z"/><path d="M-107.89537,287.85712v-31.73664h31.73664v31.73664z"/><path d="M-107.89537,68.71562v-31.73664h31.73664v31.73664z"/><path d="M-107.89537,100.18621v-31.73664h31.73664v31.73664z"/><path d="M-107.89537,131.65679v-31.73664h31.73664v31.73664z"/><path d="M-107.89537,163.12739v-31.73664h31.73664v31.73664z"/><path d="M-76.13066,193.73947v-31.73664h31.73664v31.73664z"/><path d="M-76.13066,225.21006v-31.73664h31.73664v31.73664z"/><path d="M-76.13066,256.68065v-31.73664h31.73664v31.73664z"/><path d="M-76.13066,288.15124v-31.73664h31.73664v31.73664z"/><path d="M-76.13066,69.00974v-31.73664h31.73664v31.73664z"/><path d="M-76.13066,100.48033v-31.73664h31.73664v31.73664z"/><path d="M-76.13066,131.95092v-31.73664h31.73664v31.73664z"/><path d="M-76.13066,163.42151v-31.73664h31.73664v31.73664z"/><path d="M-298.97875,192.04024v-31.73664h31.73664v31.73664z"/><path d="M-298.97875,223.51083v-31.73664h31.73664v31.73664z"/><path d="M-298.97875,254.98141v-31.73664h31.73664v31.73664z"/><path d="M-298.97875,286.452v-31.73664h31.73664v31.73664z"/><path d="M-298.97875,67.31051v-31.73664h31.73664v31.73664z"/><path d="M-298.97875,98.7811v-31.73664h31.73664v31.73664z"/><path d="M-298.97875,130.25168v-31.73664h31.73664v31.73664z"/><path d="M-298.97875,161.72227v-31.73664h31.73664v31.73664z"/><path d="M-267.18108,192.32291v-31.73664h31.73664v31.73664z"/><path d="M-267.18108,223.7935v-31.73664h31.73664v31.73664z"/><path d="M-267.18108,255.26408v-31.73664h31.73664v31.73664z"/><path d="M-267.18108,286.73467v-31.73664h31.73664v31.73664z"/><path d="M-267.18108,67.59318v-31.73664h31.73664v31.73664z"/><path d="M-267.18108,99.06377v-31.73664h31.73664v31.73664z"/><path d="M-267.18108,130.53435v-31.73664h31.73664v31.73664z"/><path d="M-267.18108,162.00492v-31.73664h31.73664v31.73664z"/><path d="M-235.41638,192.61703v-31.73664h31.73664v31.73664z"/><path d="M-235.41638,224.08762v-31.73664h31.73664v31.73664z"/><path d="M-235.41638,255.5582v-31.73664h31.73664v31.73664z"/><path d="M-235.41638,287.02879v-31.73664h31.73664v31.73664z"/><path d="M-235.41638,67.88729v-31.73664h31.73664v31.73664z"/><path d="M-235.41638,99.35789v-31.73664h31.73664v31.73664z"/><path d="M-235.41638,130.82847v-31.73664h31.73664v31.73664z"/><path d="M-235.41638,162.29906v-31.73664h31.73664v31.73664z"/><path d="M49.23735,193.89784v-31.73664h31.73664v31.73664z"/><path d="M49.23735,225.36843v-31.73664h31.73664v31.73664z"/><path d="M49.23735,256.83902v-31.73664h31.73664v31.73664z"/><path d="M49.23735,288.3096v-31.73664h31.73664v31.73664z"/><path d="M49.23735,69.16811v-31.73664h31.73664v31.73664z"/><path d="M49.23735,100.6387v-31.73664h31.73664v31.73664z"/><path d="M49.23735,132.10929v-31.73664h31.73664v31.73664z"/><path d="M49.23735,163.57987v-31.73664h31.73664v31.73664z"/><path d="M81.03502,194.18051v-31.73664h31.73664v31.73664z"/><path d="M81.03502,225.6511v-31.73664h31.73664v31.73664z"/><path d="M81.03502,257.12168v-31.73664h31.73664v31.73664z"/><path d="M81.03502,288.59227v-31.73664h31.73664v31.73664z"/><path d="M81.03502,69.45077v-31.73664h31.73664v31.73664z"/><path d="M81.03502,100.92137v-31.73664h31.73664v31.73664z"/><path d="M81.03502,132.39195v-31.73664h31.73664v31.73664z"/><path d="M81.03502,163.86254v-31.73664h31.73664v31.73664z"/><path d="M113.02113,194.43056v-31.73664h31.73664v31.73664z"/><path d="M113.02113,225.90115v-31.73664h31.73664v31.73664z"/><path d="M113.02113,257.37174v-31.73664h31.73664v31.73664z"/><path d="M113.02113,288.84233v-31.73664h31.73664v31.73664z"/><path d="M113.02113,69.70082v-31.73664h31.73664v31.73664z"/><path d="M113.02113,101.17142v-31.73664h31.73664v31.73664z"/><path d="M113.02113,132.64201v-31.73664h31.73664v31.73664z"/><path d="M113.02113,164.1126v-31.73664h31.73664v31.73664z"/><path d="M144.8188,194.71323v-31.73664h31.73664v31.73664z"/><path d="M144.8188,226.18382v-31.73664h31.73664v31.73664z"/><path d="M144.8188,257.65441v-31.73664h31.73664v31.73664z"/><path d="M144.8188,289.125v-31.73664h31.73664v31.73664z"/><path d="M144.8188,69.9835v-31.73664h31.73664v31.73664z"/><path d="M144.8188,101.45409v-31.73664h31.73664v31.73664z"/><path d="M144.8188,132.92468v-31.73664h31.73664v31.73664z"/><path d="M144.8188,164.39527v-31.73664h31.73664v31.73664z"/><path d="M176.58351,195.00735v-31.73664h31.73664v31.73664z"/><path d="M176.58351,226.47794v-31.73664h31.73664v31.73664z"/><path d="M176.58351,257.94853v-31.73664h31.73664v31.73664z"/><path d="M176.58351,289.41911v-31.73664h31.73664v31.73664z"/><path d="M176.58351,70.27762v-31.73664h31.73664v31.73664z"/><path d="M176.58351,101.74821v-31.73664h31.73664v31.73664z"/><path d="M176.58351,133.2188v-31.73664h31.73664v31.73664z"/><path d="M176.58351,164.68938v-31.73664h31.73664v31.73664z"/><path d="M-46.26458,193.30812v-31.73664h31.73664v31.73664z"/><path d="M-46.26458,224.77871v-31.73664h31.73664v31.73664z"/><path d="M-46.26458,256.24929v-31.73664h31.73664v31.73664z"/><path d="M-46.26458,287.71988v-31.73664h31.73664v31.73664z"/><path d="M-46.26458,68.57839v-31.73664h31.73664v31.73664z"/><path d="M-46.26458,100.04898v-31.73664h31.73664v31.73664z"/><path d="M-46.26458,131.51956v-31.73664h31.73664v31.73664z"/><path d="M-46.26458,162.99015v-31.73664h31.73664v31.73664z"/><path d="M-14.46691,193.59079v-31.73664h31.73664v31.73664z"/><path d="M-14.46691,225.06138v-31.73664h31.73664v31.73664z"/><path d="M-14.46691,256.53196v-31.73664h31.73664v31.73664z"/><path d="M-14.46691,288.00255v-31.73664h31.73664v31.73664z"/><path d="M-14.46691,68.86105v-31.73664h31.73664v31.73664z"/><path d="M-14.46691,100.33165v-31.73664h31.73664v31.73664z"/><path d="M-14.46691,131.80223v-31.73664h31.73664v31.73664z"/><path d="M-14.46691,163.27282v-31.73664h31.73664v31.73664z"/><path d="M17.29779,193.88491v-31.73664h31.73664v31.73664z"/><path d="M17.29779,225.3555v-31.73664h31.73664v31.73664z"/><path d="M17.29779,256.82608v-31.73664h31.73664v31.73664z"/><path d="M17.29779,288.29667v-31.73664h31.73664v31.73664z"/><path d="M17.29779,69.15518v-31.73664h31.73664v31.73664z"/><path d="M17.29779,100.62577v-31.73664h31.73664v31.73664z"/><path d="M17.29779,132.09635v-31.73664h31.73664v31.73664z"/><path d="M17.29779,163.56694v-31.73664h31.73664v31.73664z"/></g><g><path d="M304.13168,446.80246v-31.73664h31.73664v31.73664z"/><path d="M304.13168,478.27305v-31.73664h31.73664v31.73664z"/><path d="M304.13168,509.74364v-31.73664h31.73664v31.73664z"/><path d="M304.13168,541.21423v-31.73664h31.73664v31.73664z"/><path d="M304.13168,322.07273v-31.73664h31.73664v31.73664z"/><path d="M304.13168,353.54332v-31.73664h31.73664v31.73664z"/><path d="M304.13168,385.01391v-31.73664h31.73664v31.73664z"/><path d="M304.13168,416.4845v-31.73664h31.73664v31.73664z"/><path d="M335.92935,447.08513v-31.73664h31.73664v31.73664z"/><path d="M335.92935,478.55572v-31.73664h31.73664v31.73664z"/><path d="M335.92935,510.0263v-31.73664h31.73664v31.73664z"/><path d="M335.92935,541.49689v-31.73664h31.73664v31.73664z"/><path d="M335.92935,322.3554v-31.73664h31.73664v31.73664z"/><path d="M335.92935,353.82599v-31.73664h31.73664v31.73664z"/><path d="M335.92935,385.29657v-31.73664h31.73664v31.73664z"/><path d="M335.92935,416.76715v-31.73664h31.73664v31.73664z"/><path d="M367.91546,447.33518v-31.73664h31.73664v31.73664z"/><path d="M367.91546,478.80577v-31.73664h31.73664v31.73664z"/><path d="M367.91546,510.27636v-31.73664h31.73664v31.73664z"/><path d="M367.91546,541.74695v-31.73664h31.73664v31.73664z"/><path d="M367.91546,322.60544v-31.73664h31.73664v31.73664z"/><path d="M367.91546,354.07604v-31.73664h31.73664v31.73664z"/><path d="M367.91546,385.54663v-31.73664h31.73664v31.73664z"/><path d="M367.91546,417.01722v-31.73664h31.73664v31.73664z"/><path d="M399.71313,447.61785v-31.73664h31.73664v31.73664z"/><path d="M399.71313,479.08844v-31.73664h31.73664v31.73664z"/><path d="M399.71313,510.55903v-31.73664h31.73664v31.73664z"/><path d="M399.71313,542.02962v-31.73664h31.73664v31.73664z"/><path d="M399.71313,322.88812v-31.73664h31.73664v31.73664z"/><path d="M399.71313,354.35871v-31.73664h31.73664v31.73664z"/><path d="M399.71313,385.82929v-31.73664h31.73664v31.73664z"/><path d="M399.71313,417.29989v-31.73664h31.73664v31.73664z"/><path d="M431.47784,447.91197v-31.73664h31.73664v31.73664z"/><path d="M431.47784,479.38256v-31.73664h31.73664v31.73664z"/><path d="M431.47784,510.85315v-31.73664h31.73664v31.73664z"/><path d="M431.47784,542.32374v-31.73664h31.73664v31.73664z"/><path d="M431.47784,323.18224v-31.73664h31.73664v31.73664z"/><path d="M431.47784,354.65283v-31.73664h31.73664v31.73664z"/><path d="M431.47784,386.12342v-31.73664h31.73664v31.73664z"/><path d="M431.47784,417.59401v-31.73664h31.73664v31.73664z"/><path d="M208.62975,446.21274v-31.73664h31.73664v31.73664z"/><path d="M208.62975,477.68333v-31.73664h31.73664v31.73664z"/><path d="M208.62975,509.15391v-31.73664h31.73664v31.73664z"/><path d="M208.62975,540.6245v-31.73664h31.73664v31.73664z"/><path d="M208.62975,321.48301v-31.73664h31.73664v31.73664z"/><path d="M208.62975,352.9536v-31.73664h31.73664v31.73664z"/><path d="M208.62975,384.42418v-31.73664h31.73664v31.73664z"/><path d="M208.62975,415.89477v-31.73664h31.73664v31.73664z"/><path d="M240.42742,446.49541v-31.73664h31.73664v31.73664z"/><path d="M240.42742,477.966v-31.73664h31.73664v31.73664z"/><path d="M240.42742,509.43658v-31.73664h31.73664v31.73664z"/><path d="M240.42742,540.90717v-31.73664h31.73664v31.73664z"/><path d="M240.42742,321.76568v-31.73664h31.73664v31.73664z"/><path d="M240.42742,353.23627v-31.73664h31.73664v31.73664z"/><path d="M240.42742,384.70685v-31.73664h31.73664v31.73664z"/><path d="M240.42742,416.17743v-31.73664h31.73664v31.73664z"/><path d="M272.19212,446.78953v-31.73664h31.73664v31.73664z"/><path d="M272.19212,478.26012v-31.73664h31.73664v31.73664z"/><path d="M272.19212,509.7307v-31.73664h31.73664v31.73664z"/><path d="M272.19212,541.20129v-31.73664h31.73664v31.73664z"/><path d="M272.19212,322.05978v-31.73664h31.73664v31.73664z"/><path d="M272.19212,353.53039v-31.73664h31.73664v31.73664z"/><path d="M272.19212,385.00097v-31.73664h31.73664v31.73664z"/><path d="M272.19212,416.47156v-31.73664h31.73664v31.73664z"/><path d="M556.84585,448.07034v-31.73664h31.73664v31.73664z"/><path d="M556.84585,479.54093v-31.73664h31.73664v31.73664z"/><path d="M556.84585,511.01152v-31.73664h31.73664v31.73664z"/><path d="M556.84585,542.48209v-31.73664h31.73664v31.73664z"/><path d="M556.84585,323.34061v-31.73664h31.73664v31.73664z"/><path d="M556.84585,354.8112v-31.73664h31.73664v31.73664z"/><path d="M556.84585,386.28179v-31.73664h31.73664v31.73664z"/><path d="M556.84585,417.75237v-31.73664h31.73664v31.73664z"/><path d="M588.64352,448.35301v-31.73664h31.73664v31.73664z"/><path d="M588.64352,479.8236v-31.73664h31.73664v31.73664z"/><path d="M588.64352,511.29418v-31.73664h31.73664v31.73664z"/><path d="M588.64352,542.76477v-31.73664h31.73664v31.73664z"/><path d="M588.64352,323.62327v-31.73664h31.73664v31.73664z"/><path d="M588.64352,355.09387v-31.73664h31.73664v31.73664z"/><path d="M588.64352,386.56445v-31.73664h31.73664v31.73664z"/><path d="M588.64352,418.03504v-31.73664h31.73664v31.73664z"/><path d="M620.62963,448.60306v-31.73664h31.73664v31.73664z"/><path d="M620.62963,480.07365v-31.73664h31.73664v31.73664z"/><path d="M620.62963,511.54424v-31.73664h31.73664v31.73664z"/><path d="M620.62963,543.01483v-31.73664h31.73664v31.73664z"/><path d="M620.62963,323.87332v-31.73664h31.73664v31.73664z"/><path d="M620.62963,355.34392v-31.73664h31.73664v31.73664z"/><path d="M620.62963,386.81451v-31.73664h31.73664v31.73664z"/><path d="M620.62963,418.2851v-31.73664h31.73664v31.73664z"/><path d="M652.42729,448.88573v-31.73664h31.73664v31.73664z"/><path d="M652.42729,480.35632v-31.73664h31.73664v31.73664z"/><path d="M652.42729,511.82691v-31.73664h31.73664v31.73664z"/><path d="M652.42729,543.2975v-31.73664h31.73664v31.73664z"/><path d="M652.42729,324.156v-31.73664h31.73664v31.73664z"/><path d="M652.42729,355.62659v-31.73664h31.73664v31.73664z"/><path d="M652.42729,387.09718v-31.73664h31.73664v31.73664z"/><path d="M652.42729,418.56777v-31.73664h31.73664v31.73664z"/><path d="M684.19201,449.17985v-31.73664h31.73664v31.73664z"/><path d="M684.19201,480.65044v-31.73664h31.73664v31.73664z"/><path d="M684.19201,512.12103v-31.73664h31.73664v31.73664z"/><path d="M684.19201,543.5916v-31.73664h31.73664v31.73664z"/><path d="M684.19201,324.45012v-31.73664h31.73664v31.73664z"/><path d="M684.19201,355.92071v-31.73664h31.73664v31.73664z"/><path d="M684.19201,387.3913v-31.73664h31.73664v31.73664z"/><path d="M684.19201,418.86189v-31.73664h31.73664v31.73664z"/><path d="M461.34392,447.48062v-31.73664h31.73664v31.73664z"/><path d="M461.34392,478.95121v-31.73664h31.73664v31.73664z"/><path d="M461.34392,510.42179v-31.73664h31.73664v31.73664z"/><path d="M461.34392,541.89238v-31.73664h31.73664v31.73664z"/><path d="M461.34392,322.75089v-31.73664h31.73664v31.73664z"/><path d="M461.34392,354.22148v-31.73664h31.73664v31.73664z"/><path d="M461.34392,385.69206v-31.73664h31.73664v31.73664z"/><path d="M461.34392,417.16265v-31.73664h31.73664v31.73664z"/><path d="M493.14159,447.76329v-31.73664h31.73664v31.73664z"/><path d="M493.14159,479.23388v-31.73664h31.73664v31.73664z"/><path d="M493.14159,510.70446v-31.73664h31.73664v31.73664z"/><path d="M493.14159,542.17504v-31.73664h31.73664v31.73664z"/><path d="M493.14159,323.03355v-31.73664h31.73664v31.73664z"/><path d="M493.14159,354.50415v-31.73664h31.73664v31.73664z"/><path d="M493.14159,385.97473v-31.73664h31.73664v31.73664z"/><path d="M493.14159,417.44532v-31.73664h31.73664v31.73664z"/><path d="M524.90629,448.05741v-31.73664h31.73664v31.73664z"/><path d="M524.90629,479.528v-31.73664h31.73664v31.73664z"/><path d="M524.90629,510.99858v-31.73664h31.73664v31.73664z"/><path d="M524.90629,542.46917v-31.73664h31.73664v31.73664z"/><path d="M524.90629,323.32768v-31.73664h31.73664v31.73664z"/><path d="M524.90629,354.79827v-31.73664h31.73664v31.73664z"/><path d="M524.90629,386.26885v-31.73664h31.73664v31.73664z"/><path d="M524.90629,417.73944v-31.73664h31.73664v31.73664z"/><path d="M-203.47682,443.56409v-31.73664h31.73664v31.73664z"/><path d="M-203.47682,475.03468v-31.73664h31.73664v31.73664z"/><path d="M-203.47682,506.50527v-31.73664h31.73664v31.73664z"/><path d="M-203.47682,537.97586v-31.73664h31.73664v31.73664z"/><path d="M-203.47682,318.83436v-31.73664h31.73664v31.73664z"/><path d="M-203.47682,350.30495v-31.73664h31.73664v31.73664z"/><path d="M-203.47682,381.77554v-31.73664h31.73664v31.73664z"/><path d="M-203.47682,413.24613v-31.73664h31.73664v31.73664z"/><path d="M-171.67915,443.84676v-31.73664h31.73664v31.73664z"/><path d="M-171.67915,475.31735v-31.73664h31.73664v31.73664z"/><path d="M-171.67915,506.78793v-31.73664h31.73664v31.73664z"/><path d="M-171.67915,538.25852v-31.73664h31.73664v31.73664z"/><path d="M-171.67915,319.11703v-31.73664h31.73664v31.73664z"/><path d="M-171.67915,350.58762v-31.73664h31.73664v31.73664z"/><path d="M-171.67915,382.0582v-31.73664h31.73664v31.73664z"/><path d="M-171.67915,413.52878v-31.73664h31.73664v31.73664z"/><path d="M-139.69304,444.09681v-31.73664h31.73664v31.73664z"/><path d="M-139.69304,475.5674v-31.73664h31.73664v31.73664z"/><path d="M-139.69304,507.03799v-31.73664h31.73664v31.73664z"/><path d="M-139.69304,538.50857v-31.73664h31.73664v31.73664z"/><path d="M-139.69304,319.36708v-31.73664h31.73664v31.73664z"/><path d="M-139.69304,350.83767v-31.73664h31.73664v31.73664z"/><path d="M-139.69304,382.30826v-31.73664h31.73664v31.73664z"/><path d="M-139.69304,413.77885v-31.73664h31.73664v31.73664z"/><path d="M-107.89537,444.37948v-31.73664h31.73664v31.73664z"/><path d="M-107.89537,475.85007v-31.73664h31.73664v31.73664z"/><path d="M-107.89537,507.32066v-31.73664h31.73664v31.73664z"/><path d="M-107.89537,538.79125v-31.73664h31.73664v31.73664z"/><path d="M-107.89537,319.64975v-31.73664h31.73664v31.73664z"/><path d="M-107.89537,351.12034v-31.73664h31.73664v31.73664z"/><path d="M-107.89537,382.59092v-31.73664h31.73664v31.73664z"/><path d="M-107.89537,414.06152v-31.73664h31.73664v31.73664z"/><path d="M-76.13066,444.6736v-31.73664h31.73664v31.73664z"/><path d="M-76.13066,476.14419v-31.73664h31.73664v31.73664z"/><path d="M-76.13066,507.61478v-31.73664h31.73664v31.73664z"/><path d="M-76.13066,539.08537v-31.73664h31.73664v31.73664z"/><path d="M-76.13066,319.94387v-31.73664h31.73664v31.73664z"/><path d="M-76.13066,351.41446v-31.73664h31.73664v31.73664z"/><path d="M-76.13066,382.88505v-31.73664h31.73664v31.73664z"/><path d="M-76.13066,414.35564v-31.73664h31.73664v31.73664z"/><path d="M-298.97875,442.97437v-31.73664h31.73664v31.73664z"/><path d="M-298.97875,474.44496v-31.73664h31.73664v31.73664z"/><path d="M-298.97875,505.91554v-31.73664h31.73664v31.73664z"/><path d="M-298.97875,537.38613v-31.73664h31.73664v31.73664z"/><path d="M-298.97875,318.24464v-31.73664h31.73664v31.73664z"/><path d="M-298.97875,349.71523v-31.73664h31.73664v31.73664z"/><path d="M-298.97875,381.18581v-31.73664h31.73664v31.73664z"/><path d="M-298.97875,412.6564v-31.73664h31.73664v31.73664z"/><path d="M-267.18108,443.25704v-31.73664h31.73664v31.73664z"/><path d="M-267.18108,474.72763v-31.73664h31.73664v31.73664z"/><path d="M-267.18108,506.19821v-31.73664h31.73664v31.73664z"/><path d="M-267.18108,537.6688v-31.73664h31.73664v31.73664z"/><path d="M-267.18108,318.52731v-31.73664h31.73664v31.73664z"/><path d="M-267.18108,349.9979v-31.73664h31.73664v31.73664z"/><path d="M-267.18108,381.46848v-31.73664h31.73664v31.73664z"/><path d="M-267.18108,412.93906v-31.73664h31.73664v31.73664z"/><path d="M-235.41638,443.55116v-31.73664h31.73664v31.73664z"/><path d="M-235.41638,475.02175v-31.73664h31.73664v31.73664z"/><path d="M-235.41638,506.49233v-31.73664h31.73664v31.73664z"/><path d="M-235.41638,537.96291v-31.73664h31.73664v31.73664z"/><path d="M-235.41638,318.82142v-31.73664h31.73664v31.73664z"/><path d="M-235.41638,350.29202v-31.73664h31.73664v31.73664z"/><path d="M-235.41638,381.7626v-31.73664h31.73664v31.73664z"/><path d="M-235.41638,413.23319v-31.73664h31.73664v31.73664z"/><path d="M49.23735,444.83197v-31.73664h31.73664v31.73664z"/><path d="M49.23735,476.30256v-31.73664h31.73664v31.73664z"/><path d="M49.23735,507.77315v-31.73664h31.73664v31.73664z"/><path d="M49.23735,539.24373v-31.73664h31.73664v31.73664z"/><path d="M49.23735,320.10224v-31.73664h31.73664v31.73664z"/><path d="M49.23735,351.57283v-31.73664h31.73664v31.73664z"/><path d="M49.23735,383.04342v-31.73664h31.73664v31.73664z"/><path d="M49.23735,414.514v-31.73664h31.73664v31.73664z"/><path d="M81.03502,445.11464v-31.73664h31.73664v31.73664z"/><path d="M81.03502,476.58523v-31.73664h31.73664v31.73664z"/><path d="M81.03502,508.05581v-31.73664h31.73664v31.73664z"/><path d="M81.03502,539.5264v-31.73664h31.73664v31.73664z"/><path d="M81.03502,320.38489v-31.73664h31.73664v31.73664z"/><path d="M81.03502,351.8555v-31.73664h31.73664v31.73664z"/><path d="M81.03502,383.32608v-31.73664h31.73664v31.73664z"/><path d="M81.03502,414.79667v-31.73664h31.73664v31.73664z"/><path d="M113.02113,445.36469v-31.73664h31.73664v31.73664z"/><path d="M113.02113,476.83528v-31.73664h31.73664v31.73664z"/><path d="M113.02113,508.30587v-31.73664h31.73664v31.73664z"/><path d="M113.02113,539.77646v-31.73664h31.73664v31.73664z"/><path d="M113.02113,320.63495v-31.73664h31.73664v31.73664z"/><path d="M113.02113,352.10555v-31.73664h31.73664v31.73664z"/><path d="M113.02113,383.57614v-31.73664h31.73664v31.73664z"/><path d="M113.02113,415.04673v-31.73664h31.73664v31.73664z"/><path d="M144.8188,445.64736v-31.73664h31.73664v31.73664z"/><path d="M144.8188,477.11795v-31.73664h31.73664v31.73664z"/><path d="M144.8188,508.58854v-31.73664h31.73664v31.73664z"/><path d="M144.8188,540.05913v-31.73664h31.73664v31.73664z"/><path d="M144.8188,320.91763v-31.73664h31.73664v31.73664z"/><path d="M144.8188,352.38822v-31.73664h31.73664v31.73664z"/><path d="M144.8188,383.85881v-31.73664h31.73664v31.73664z"/><path d="M144.8188,415.3294v-31.73664h31.73664v31.73664z"/><path d="M176.58351,445.94148v-31.73664h31.73664v31.73664z"/><path d="M176.58351,477.41207v-31.73664h31.73664v31.73664z"/><path d="M176.58351,508.88266v-31.73664h31.73664v31.73664z"/><path d="M176.58351,540.35324v-31.73664h31.73664v31.73664z"/><path d="M176.58351,321.21175v-31.73664h31.73664v31.73664z"/><path d="M176.58351,352.68234v-31.73664h31.73664v31.73664z"/><path d="M176.58351,384.15293v-31.73664h31.73664v31.73664z"/><path d="M176.58351,415.62352v-31.73664h31.73664v31.73664z"/><path d="M-46.26458,444.24225v-31.73664h31.73664v31.73664z"/><path d="M-46.26458,475.71284v-31.73664h31.73664v31.73664z"/><path d="M-46.26458,507.18342v-31.73664h31.73664v31.73664z"/><path d="M-46.26458,538.65401v-31.73664h31.73664v31.73664z"/><path d="M-46.26458,319.51252v-31.73664h31.73664v31.73664z"/><path d="M-46.26458,350.98311v-31.73664h31.73664v31.73664z"/><path d="M-46.26458,382.45369v-31.73664h31.73664v31.73664z"/><path d="M-46.26458,413.92428v-31.73664h31.73664v31.73664z"/><path d="M-14.46691,444.52492v-31.73664h31.73664v31.73664z"/><path d="M-14.46691,475.99551v-31.73664h31.73664v31.73664z"/><path d="M-14.46691,507.46609v-31.73664h31.73664v31.73664z"/><path d="M-14.46691,538.93668v-31.73664h31.73664v31.73664z"/><path d="M-14.46691,319.79517v-31.73664h31.73664v31.73664z"/><path d="M-14.46691,351.26578v-31.73664h31.73664v31.73664z"/><path d="M-14.46691,382.73636v-31.73664h31.73664v31.73664z"/><path d="M-14.46691,414.20695v-31.73664h31.73664v31.73664z"/><path d="M17.29779,444.81904v-31.73664h31.73664v31.73664z"/><path d="M17.29779,476.28963v-31.73664h31.73664v31.73664z"/><path d="M17.29779,507.76021v-31.73664h31.73664v31.73664z"/><path d="M17.29779,539.23079v-31.73664h31.73664v31.73664z"/><path d="M17.29779,320.08931v-31.73664h31.73664v31.73664z"/><path d="M17.29779,351.5599v-31.73664h31.73664v31.73664z"/><path d="M17.29779,383.03048v-31.73664h31.73664v31.73664z"/><path d="M17.29779,414.50107v-31.73664h31.73664v31.73664z"/></g><g><path d="M304.13168,-55.40072v-31.73664h31.73664v31.73664z"/><path d="M304.13168,-23.93013v-31.73664h31.73664v31.73664z"/><path d="M304.13168,7.54046v-31.73664h31.73664v31.73664z"/><path d="M304.13168,39.01105v-31.73664h31.73664v31.73664z"/><path d="M304.13168,-180.13045v-31.73664h31.73664v31.73664z"/><path d="M304.13168,-148.65986v-31.73664h31.73664v31.73664z"/><path d="M304.13168,-117.18927v-31.73664h31.73664v31.73664z"/><path d="M304.13168,-85.71868v-31.73664h31.73664v31.73664z"/><path d="M335.92935,-55.11805v-31.73664h31.73664v31.73664z"/><path d="M335.92935,-23.64746v-31.73664h31.73664v31.73664z"/><path d="M335.92935,7.82312v-31.73664h31.73664v31.73664z"/><path d="M335.92935,39.29371v-31.73664h31.73664v31.73664z"/><path d="M335.92935,-179.84778v-31.73664h31.73664v31.73664z"/><path d="M335.92935,-148.37719v-31.73664h31.73664v31.73664z"/><path d="M335.92935,-116.90661v-31.73664h31.73664v31.73664z"/><path d="M335.92935,-85.43603v-31.73664h31.73664v31.73664z"/><path d="M367.91546,-54.868v-31.73664h31.73664v31.73664z"/><path d="M367.91546,-23.39741v-31.73664h31.73664v31.73664z"/><path d="M367.91546,8.07318v-31.73664h31.73664v31.73664z"/><path d="M367.91546,39.54377v-31.73664h31.73664v31.73664z"/><path d="M367.91546,-179.59773v-31.73664h31.73664v31.73664z"/><path d="M367.91546,-148.12714v-31.73664h31.73664v31.73664z"/><path d="M367.91546,-116.65655v-31.73664h31.73664v31.73664z"/><path d="M367.91546,-85.18596v-31.73664h31.73664v31.73664z"/><path d="M399.71313,-54.58533v-31.73664h31.73664v31.73664z"/><path d="M399.71313,-23.11474v-31.73664h31.73664v31.73664z"/><path d="M399.71313,8.35585v-31.73664h31.73664v31.73664z"/><path d="M399.71313,39.82644v-31.73664h31.73664v31.73664z"/><path d="M399.71313,-179.31506v-31.73664h31.73664v31.73664z"/><path d="M399.71313,-147.84447v-31.73664h31.73664v31.73664z"/><path d="M399.71313,-116.37389v-31.73664h31.73664v31.73664z"/><path d="M399.71313,-84.90329v-31.73664h31.73664v31.73664z"/><path d="M431.47784,-54.29121v-31.73664h31.73664v31.73664z"/><path d="M431.47784,-22.82062v-31.73664h31.73664v31.73664z"/><path d="M431.47784,8.64997v-31.73664h31.73664v31.73664z"/><path d="M431.47784,40.12056v-31.73664h31.73664v31.73664z"/><path d="M431.47784,-179.02094v-31.73664h31.73664v31.73664z"/><path d="M431.47784,-147.55035v-31.73664h31.73664v31.73664z"/><path d="M431.47784,-116.07976v-31.73664h31.73664v31.73664z"/><path d="M431.47784,-84.60917v-31.73664h31.73664v31.73664z"/><path d="M208.62975,-55.99044v-31.73664h31.73664v31.73664z"/><path d="M208.62975,-24.51985v-31.73664h31.73664v31.73664z"/><path d="M208.62975,6.95073v-31.73664h31.73664v31.73664z"/><path d="M208.62975,38.42132v-31.73664h31.73664v31.73664z"/><path d="M208.62975,-180.72017v-31.73664h31.73664v31.73664z"/><path d="M208.62975,-149.24958v-31.73664h31.73664v31.73664z"/><path d="M208.62975,-117.779v-31.73664h31.73664v31.73664z"/><path d="M208.62975,-86.30841v-31.73664h31.73664v31.73664z"/><path d="M240.42742,-55.70777v-31.73664h31.73664v31.73664z"/><path d="M240.42742,-24.23718v-31.73664h31.73664v31.73664z"/><path d="M240.42742,7.2334v-31.73664h31.73664v31.73664z"/><path d="M240.42742,38.70399v-31.73664h31.73664v31.73664z"/><path d="M240.42742,-180.4375v-31.73664h31.73664v31.73664z"/><path d="M240.42742,-148.96691v-31.73664h31.73664v31.73664z"/><path d="M240.42742,-117.49633v-31.73664h31.73664v31.73664z"/><path d="M240.42742,-86.02575v-31.73664h31.73664v31.73664z"/><path d="M272.19212,-55.41365v-31.73664h31.73664v31.73664z"/><path d="M272.19212,-23.94306v-31.73664h31.73664v31.73664z"/><path d="M272.19212,7.52752v-31.73664h31.73664v31.73664z"/><path d="M272.19212,38.99811v-31.73664h31.73664v31.73664z"/><path d="M272.19212,-180.14339v-31.73664h31.73664v31.73664z"/><path d="M272.19212,-148.67279v-31.73664h31.73664v31.73664z"/><path d="M272.19212,-117.20221v-31.73664h31.73664v31.73664z"/><path d="M272.19212,-85.73162v-31.73664h31.73664v31.73664z"/><path d="M556.84585,-54.13284v-31.73664h31.73664v31.73664z"/><path d="M556.84585,-22.66225v-31.73664h31.73664v31.73664z"/><path d="M556.84585,8.80834v-31.73664h31.73664v31.73664z"/><path d="M556.84585,40.27892v-31.73664h31.73664v31.73664z"/><path d="M556.84585,-178.86257v-31.73664h31.73664v31.73664z"/><path d="M556.84585,-147.39198v-31.73664h31.73664v31.73664z"/><path d="M556.84585,-115.92139v-31.73664h31.73664v31.73664z"/><path d="M556.84585,-84.45081v-31.73664h31.73664v31.73664z"/><path d="M588.64352,-53.85017v-31.73664h31.73664v31.73664z"/><path d="M588.64352,-22.37958v-31.73664h31.73664v31.73664z"/><path d="M588.64352,9.091v-31.73664h31.73664v31.73664z"/><path d="M588.64352,40.56159v-31.73664h31.73664v31.73664z"/><path d="M588.64352,-178.57991v-31.73664h31.73664v31.73664z"/><path d="M588.64352,-147.10931v-31.73664h31.73664v31.73664z"/><path d="M588.64352,-115.63873v-31.73664h31.73664v31.73664z"/><path d="M588.64352,-84.16814v-31.73664h31.73664v31.73664z"/><path d="M620.62963,-53.60012v-31.73664h31.73664v31.73664z"/><path d="M620.62963,-22.12953v-31.73664h31.73664v31.73664z"/><path d="M620.62963,9.34106v-31.73664h31.73664v31.73664z"/><path d="M620.62963,40.81165v-31.73664h31.73664v31.73664z"/><path d="M620.62963,-178.32986v-31.73664h31.73664v31.73664z"/><path d="M620.62963,-146.85926v-31.73664h31.73664v31.73664z"/><path d="M620.62963,-115.38867v-31.73664h31.73664v31.73664z"/><path d="M620.62963,-83.91808v-31.73664h31.73664v31.73664z"/><path d="M652.42729,-53.31745v-31.73664h31.73664v31.73664z"/><path d="M652.42729,-21.84686v-31.73664h31.73664v31.73664z"/><path d="M652.42729,9.62373v-31.73664h31.73664v31.73664z"/><path d="M652.42729,41.09432v-31.73664h31.73664v31.73664z"/><path d="M652.42729,-178.04718v-31.73664h31.73664v31.73664z"/><path d="M652.42729,-146.57659v-31.73664h31.73664v31.73664z"/><path d="M652.42729,-115.106v-31.73664h31.73664v31.73664z"/><path d="M652.42729,-83.63541v-31.73664h31.73664v31.73664z"/><path d="M684.19201,-53.02333v-31.73664h31.73664v31.73664z"/><path d="M684.19201,-21.55274v-31.73664h31.73664v31.73664z"/><path d="M684.19201,9.91785v-31.73664h31.73664v31.73664z"/><path d="M684.19201,41.38843v-31.73664h31.73664v31.73664z"/><path d="M684.19201,-177.75306v-31.73664h31.73664v31.73664z"/><path d="M684.19201,-146.28247v-31.73664h31.73664v31.73664z"/><path d="M684.19201,-114.81188v-31.73664h31.73664v31.73664z"/><path d="M684.19201,-83.34129v-31.73664h31.73664v31.73664z"/><path d="M461.34392,-54.72256v-31.73664h31.73664v31.73664z"/><path d="M461.34392,-23.25197v-31.73664h31.73664v31.73664z"/><path d="M461.34392,8.21861v-31.73664h31.73664v31.73664z"/><path d="M461.34392,39.6892v-31.73664h31.73664v31.73664z"/><path d="M461.34392,-179.45229v-31.73664h31.73664v31.73664z"/><path d="M461.34392,-147.9817v-31.73664h31.73664v31.73664z"/><path d="M461.34392,-116.51112v-31.73664h31.73664v31.73664z"/><path d="M461.34392,-85.04053v-31.73664h31.73664v31.73664z"/><path d="M493.14159,-54.43989v-31.73664h31.73664v31.73664z"/><path d="M493.14159,-22.9693v-31.73664h31.73664v31.73664z"/><path d="M493.14159,8.50128v-31.73664h31.73664v31.73664z"/><path d="M493.14159,39.97187v-31.73664h31.73664v31.73664z"/><path d="M493.14159,-179.16963v-31.73664h31.73664v31.73664z"/><path d="M493.14159,-147.69903v-31.73664h31.73664v31.73664z"/><path d="M493.14159,-116.22845v-31.73664h31.73664v31.73664z"/><path d="M493.14159,-84.75786v-31.73664h31.73664v31.73664z"/><path d="M524.90629,-54.14577v-31.73664h31.73664v31.73664z"/><path d="M524.90629,-22.67518v-31.73664h31.73664v31.73664z"/><path d="M524.90629,8.7954v-31.73664h31.73664v31.73664z"/><path d="M524.90629,40.26599v-31.73664h31.73664v31.73664z"/><path d="M524.90629,-178.8755v-31.73664h31.73664v31.73664z"/><path d="M524.90629,-147.40491v-31.73664h31.73664v31.73664z"/><path d="M524.90629,-115.93433v-31.73664h31.73664v31.73664z"/><path d="M524.90629,-84.46374v-31.73664h31.73664v31.73664z"/><path d="M-203.47682,-58.63909v-31.73664h31.73664v31.73664z"/><path d="M-203.47682,-27.1685v-31.73664h31.73664v31.73664z"/><path d="M-203.47682,4.30209v-31.73664h31.73664v31.73664z"/><path d="M-203.47682,35.77268v-31.73664h31.73664v31.73664z"/><path d="M-203.47682,-183.36882v-31.73664h31.73664v31.73664z"/><path d="M-203.47682,-151.89823v-31.73664h31.73664v31.73664z"/><path d="M-203.47682,-120.42764v-31.73664h31.73664v31.73664z"/><path d="M-203.47682,-88.95705v-31.73664h31.73664v31.73664z"/><path d="M-171.67915,-58.35642v-31.73664h31.73664v31.73664z"/><path d="M-171.67915,-26.88583v-31.73664h31.73664v31.73664z"/><path d="M-171.67915,4.58475v-31.73664h31.73664v31.73664z"/><path d="M-171.67915,36.05534v-31.73664h31.73664v31.73664z"/><path d="M-171.67915,-183.08615v-31.73664h31.73664v31.73664z"/><path d="M-171.67915,-151.61556v-31.73664h31.73664v31.73664z"/><path d="M-171.67915,-120.14498v-31.73664h31.73664v31.73664z"/><path d="M-171.67915,-88.6744v-31.73664h31.73664v31.73664z"/><path d="M-139.69304,-58.10637v-31.73664h31.73664v31.73664z"/><path d="M-139.69304,-26.63578v-31.73664h31.73664v31.73664z"/><path d="M-139.69304,4.83481v-31.73664h31.73664v31.73664z"/><path d="M-139.69304,36.3054v-31.73664h31.73664v31.73664z"/><path d="M-139.69304,-182.8361v-31.73664h31.73664v31.73664z"/><path d="M-139.69304,-151.36551v-31.73664h31.73664v31.73664z"/><path d="M-139.69304,-119.89492v-31.73664h31.73664v31.73664z"/><path d="M-139.69304,-88.42433v-31.73664h31.73664v31.73664z"/><path d="M-107.89537,-57.8237v-31.73664h31.73664v31.73664z"/><path d="M-107.89537,-26.35311v-31.73664h31.73664v31.73664z"/><path d="M-107.89537,5.11748v-31.73664h31.73664v31.73664z"/><path d="M-107.89537,36.58807v-31.73664h31.73664v31.73664z"/><path d="M-107.89537,-182.55343v-31.73664h31.73664v31.73664z"/><path d="M-107.89537,-151.08284v-31.73664h31.73664v31.73664z"/><path d="M-107.89537,-119.61226v-31.73664h31.73664v31.73664z"/><path d="M-107.89537,-88.14166v-31.73664h31.73664v31.73664z"/><path d="M-76.13066,-57.52958v-31.73664h31.73664v31.73664z"/><path d="M-76.13066,-26.05899v-31.73664h31.73664v31.73664z"/><path d="M-76.13066,5.4116v-31.73664h31.73664v31.73664z"/><path d="M-76.13066,36.88219v-31.73664h31.73664v31.73664z"/><path d="M-76.13066,-182.25931v-31.73664h31.73664v31.73664z"/><path d="M-76.13066,-150.78872v-31.73664h31.73664v31.73664z"/><path d="M-76.13066,-119.31813v-31.73664h31.73664v31.73664z"/><path d="M-76.13066,-87.84754v-31.73664h31.73664v31.73664z"/><path d="M-298.97875,-59.22881v-31.73664h31.73664v31.73664z"/><path d="M-298.97875,-27.75822v-31.73664h31.73664v31.73664z"/><path d="M-298.97875,3.71236v-31.73664h31.73664v31.73664z"/><path d="M-298.97875,35.18295v-31.73664h31.73664v31.73664z"/><path d="M-298.97875,-183.95854v-31.73664h31.73664v31.73664z"/><path d="M-298.97875,-152.48795v-31.73664h31.73664v31.73664z"/><path d="M-298.97875,-121.01737v-31.73664h31.73664v31.73664z"/><path d="M-298.97875,-89.54678v-31.73664h31.73664v31.73664z"/><path d="M-267.18108,-58.94614v-31.73664h31.73664v31.73664z"/><path d="M-267.18108,-27.47555v-31.73664h31.73664v31.73664z"/><path d="M-267.18108,3.99503v-31.73664h31.73664v31.73664z"/><path d="M-267.18108,35.46562v-31.73664h31.73664v31.73664z"/><path d="M-267.18108,-183.67587v-31.73664h31.73664v31.73664z"/><path d="M-267.18108,-152.20528v-31.73664h31.73664v31.73664z"/><path d="M-267.18108,-120.7347v-31.73664h31.73664v31.73664z"/><path d="M-267.18108,-89.26412v-31.73664h31.73664v31.73664z"/><path d="M-235.41638,-58.65202v-31.73664h31.73664v31.73664z"/><path d="M-235.41638,-27.18143v-31.73664h31.73664v31.73664z"/><path d="M-235.41638,4.28915v-31.73664h31.73664v31.73664z"/><path d="M-235.41638,35.75974v-31.73664h31.73664v31.73664z"/><path d="M-235.41638,-183.38176v-31.73664h31.73664v31.73664z"/><path d="M-235.41638,-151.91116v-31.73664h31.73664v31.73664z"/><path d="M-235.41638,-120.44058v-31.73664h31.73664v31.73664z"/><path d="M-235.41638,-88.96999v-31.73664h31.73664v31.73664z"/><path d="M49.23735,-57.37121v-31.73664h31.73664v31.73664z"/><path d="M49.23735,-25.90062v-31.73664h31.73664v31.73664z"/><path d="M49.23735,5.56997v-31.73664h31.73664v31.73664z"/><path d="M49.23735,37.04055v-31.73664h31.73664v31.73664z"/><path d="M49.23735,-182.10094v-31.73664h31.73664v31.73664z"/><path d="M49.23735,-150.63035v-31.73664h31.73664v31.73664z"/><path d="M49.23735,-119.15976v-31.73664h31.73664v31.73664z"/><path d="M49.23735,-87.68918v-31.73664h31.73664v31.73664z"/><path d="M81.03502,-57.08854v-31.73664h31.73664v31.73664z"/><path d="M81.03502,-25.61795v-31.73664h31.73664v31.73664z"/><path d="M81.03502,5.85263v-31.73664h31.73664v31.73664z"/><path d="M81.03502,37.32322v-31.73664h31.73664v31.73664z"/><path d="M81.03502,-181.81828v-31.73664h31.73664v31.73664z"/><path d="M81.03502,-150.34768v-31.73664h31.73664v31.73664z"/><path d="M81.03502,-118.8771v-31.73664h31.73664v31.73664z"/><path d="M81.03502,-87.40651v-31.73664h31.73664v31.73664z"/><path d="M113.02112,-56.83849v-31.73664h31.73664v31.73664z"/><path d="M113.02112,-25.3679v-31.73664h31.73664v31.73664z"/><path d="M113.02112,6.10269v-31.73664h31.73664v31.73664z"/><path d="M113.02112,37.57328v-31.73664h31.73664v31.73664z"/><path d="M113.02112,-181.56823v-31.73664h31.73664v31.73664z"/><path d="M113.02112,-150.09763v-31.73664h31.73664v31.73664z"/><path d="M113.02112,-118.62704v-31.73664h31.73664v31.73664z"/><path d="M113.02112,-87.15645v-31.73664h31.73664v31.73664z"/><path d="M144.8188,-56.55582v-31.73664h31.73664v31.73664z"/><path d="M144.8188,-25.08523v-31.73664h31.73664v31.73664z"/><path d="M144.8188,6.38536v-31.73664h31.73664v31.73664z"/><path d="M144.8188,37.85595v-31.73664h31.73664v31.73664z"/><path d="M144.8188,-181.28555v-31.73664h31.73664v31.73664z"/><path d="M144.8188,-149.81496v-31.73664h31.73664v31.73664z"/><path d="M144.8188,-118.34437v-31.73664h31.73664v31.73664z"/><path d="M144.8188,-86.87378v-31.73664h31.73664v31.73664z"/><path d="M176.58351,-56.2617v-31.73664h31.73664v31.73664z"/><path d="M176.58351,-24.79111v-31.73664h31.73664v31.73664z"/><path d="M176.58351,6.67948v-31.73664h31.73664v31.73664z"/><path d="M176.58351,38.15006v-31.73664h31.73664v31.73664z"/><path d="M176.58351,-180.99143v-31.73664h31.73664v31.73664z"/><path d="M176.58351,-149.52084v-31.73664h31.73664v31.73664z"/><path d="M176.58351,-118.05025v-31.73664h31.73664v31.73664z"/><path d="M176.58351,-86.57966v-31.73664h31.73664v31.73664z"/><path d="M-46.26459,-57.96093v-31.73664h31.73664v31.73664z"/><path d="M-46.26459,-26.49034v-31.73664h31.73664v31.73664z"/><path d="M-46.26459,4.98024v-31.73664h31.73664v31.73664z"/><path d="M-46.26459,36.45083v-31.73664h31.73664v31.73664z"/><path d="M-46.26459,-182.69066v-31.73664h31.73664v31.73664z"/><path d="M-46.26459,-151.22007v-31.73664h31.73664v31.73664z"/><path d="M-46.26459,-119.74949v-31.73664h31.73664v31.73664z"/><path d="M-46.26459,-88.2789v-31.73664h31.73664v31.73664z"/><path d="M-14.46691,-57.67826v-31.73664h31.73664v31.73664z"/><path d="M-14.46691,-26.20767v-31.73664h31.73664v31.73664z"/><path d="M-14.46691,5.26291v-31.73664h31.73664v31.73664z"/><path d="M-14.46691,36.7335v-31.73664h31.73664v31.73664z"/><path d="M-14.46691,-182.408v-31.73664h31.73664v31.73664z"/><path d="M-14.46691,-150.9374v-31.73664h31.73664v31.73664z"/><path d="M-14.46691,-119.46682v-31.73664h31.73664v31.73664z"/><path d="M-14.46691,-87.99623v-31.73664h31.73664v31.73664z"/><path d="M17.29779,-57.38414v-31.73664h31.73664v31.73664z"/><path d="M17.29779,-25.91355v-31.73664h31.73664v31.73664z"/><path d="M17.29779,5.55703v-31.73664h31.73664v31.73664z"/><path d="M17.29779,37.02762v-31.73664h31.73664v31.73664z"/><path d="M17.29779,-182.11387v-31.73664h31.73664v31.73664z"/><path d="M17.29779,-150.64328v-31.73664h31.73664v31.73664z"/><path d="M17.29779,-119.1727v-31.73664h31.73664v31.73664z"/><path d="M17.29779,-87.70211v-31.73664h31.73664v31.73664z"/></g><g><path d="M873.34081,5.74804l-31.73664,0v-31.73664l31.73664,0z"/><path d="M904.8114,5.74804l-31.73664,0v-31.73664l31.73664,0z"/><path d="M936.28199,5.74804l-31.73664,0v-31.73664l31.73664,0z"/><path d="M967.75258,5.74804l-31.73664,0v-31.73664l31.73664,0z"/><path d="M748.61108,5.74804h-31.73664v-31.73664h31.73664z"/><path d="M780.08167,5.74804l-31.73664,0v-31.73664h31.73664z"/><path d="M811.55226,5.74804l-31.73664,0v-31.73664l31.73664,0z"/><path d="M843.02285,5.74804h-31.73664v-31.73664h31.73664z"/><path d="M873.62348,-26.04963l-31.73664,0v-31.73664l31.73664,0z"/><path d="M905.09407,-26.04963l-31.73664,0l0,-31.73664l31.73664,0z"/><path d="M936.56465,-26.04963l-31.73664,0v-31.73664l31.73664,0z"/><path d="M968.03524,-26.04963l-31.73664,0v-31.73664h31.73664z"/><path d="M748.89375,-26.04963l-31.73664,0v-31.73664l31.73664,0z"/><path d="M780.36434,-26.04963l-31.73664,0l0,-31.73664l31.73664,0z"/><path d="M811.83492,-26.04963l-31.73664,0v-31.73664l31.73664,0z"/><path d="M843.3055,-26.04963l-31.73664,0v-31.73664l31.73664,0z"/><path d="M873.87353,-58.03574h-31.73664v-31.73664l31.73664,0z"/><path d="M905.34412,-58.03574l-31.73664,0l0,-31.73664l31.73664,0z"/><path d="M936.81471,-58.03574l-31.73664,0v-31.73664l31.73664,0z"/><path d="M968.2853,-58.03574l-31.73664,0v-31.73664h31.73664z"/><path d="M749.1438,-58.03574l-31.73664,0v-31.73664l31.73664,0z"/><path d="M780.61439,-58.03574h-31.73664l0,-31.73664h31.73664z"/><path d="M812.08498,-58.03574l-31.73664,0l0,-31.73664l31.73664,0z"/><path d="M843.55557,-58.03574l-31.73664,0v-31.73664h31.73664z"/><path d="M874.1562,-89.83341l-31.73664,0v-31.73664l31.73664,0z"/><path d="M905.62679,-89.83341l-31.73664,0v-31.73664l31.73664,0z"/><path d="M937.09738,-89.83341l-31.73664,0l0,-31.73664l31.73664,0z"/><path d="M968.56797,-89.83341h-31.73664v-31.73664h31.73664z"/><path d="M749.42647,-89.83341l-31.73664,0v-31.73664h31.73664z"/><path d="M780.89706,-89.83341h-31.73664v-31.73664l31.73664,0z"/><path d="M812.36764,-89.83341l-31.73664,0v-31.73664l31.73664,0z"/><path d="M843.83824,-89.83341l-31.73664,0l0,-31.73664l31.73664,0z"/><path d="M874.45032,-121.59812l-31.73664,0l0,-31.73664l31.73664,0z"/><path d="M905.92091,-121.59812l-31.73664,0l0,-31.73664l31.73664,0z"/><path d="M937.3915,-121.59812l-31.73664,0l0,-31.73664l31.73664,0z"/><path d="M968.86209,-121.59812l-31.73664,0v-31.73664l31.73664,0z"/><path d="M749.72059,-121.59812l-31.73664,0v-31.73664l31.73664,0z"/><path d="M781.19118,-121.59812h-31.73664v-31.73664l31.73664,0z"/><path d="M812.66177,-121.59812l-31.73664,0v-31.73664l31.73664,0z"/><path d="M844.13236,-121.59812l-31.73664,0l0,-31.73664l31.73664,0z"/><path d="M872.75109,101.24997l-31.73664,0l0,-31.73664l31.73664,0z"/><path d="M904.22168,101.24997l-31.73664,0v-31.73664l31.73664,0z"/><path d="M935.69226,101.24997l-31.73664,0v-31.73664h31.73664z"/><path d="M967.16285,101.24997l-31.73664,0v-31.73664h31.73664z"/><path d="M748.02136,101.24997h-31.73664v-31.73664l31.73664,0z"/><path d="M779.49195,101.24997l-31.73664,0l0,-31.73664h31.73664z"/><path d="M810.96253,101.24997h-31.73664l0,-31.73664h31.73664z"/><path d="M842.43312,101.24997h-31.73664l0,-31.73664l31.73664,0z"/><path d="M873.03376,69.4523h-31.73664v-31.73664l31.73664,0z"/><path d="M904.50435,69.4523l-31.73664,0l0,-31.73664l31.73664,0z"/><path d="M935.97493,69.4523l-31.73664,0l0,-31.73664l31.73664,0z"/><path d="M967.44552,69.4523h-31.73664v-31.73664l31.73664,0z"/><path d="M748.30403,69.4523h-31.73664v-31.73664h31.73664z"/><path d="M779.77462,69.4523h-31.73664v-31.73664h31.73664z"/><path d="M811.2452,69.4523l-31.73664,0l0,-31.73664l31.73664,0z"/><path d="M842.71578,69.4523h-31.73664v-31.73664l31.73664,0z"/><path d="M873.32788,37.6876h-31.73664l0,-31.73664l31.73664,0z"/><path d="M904.79847,37.6876l-31.73664,0l0,-31.73664l31.73664,0z"/><path d="M936.26905,37.6876l-31.73664,0l0,-31.73664l31.73664,0z"/><path d="M967.73964,37.6876h-31.73664v-31.73664l31.73664,0z"/><path d="M748.59814,37.6876h-31.73664l0,-31.73664h31.73664z"/><path d="M780.06874,37.6876h-31.73664l0,-31.73664h31.73664z"/><path d="M811.53932,37.6876l-31.73664,0v-31.73664l31.73664,0z"/><path d="M843.00991,37.6876l-31.73664,0v-31.73664l31.73664,0z"/><path d="M874.60869,-246.96612l-31.73664,0v-31.73664l31.73664,0z"/><path d="M906.07928,-246.96612h-31.73664v-31.73664l31.73664,0z"/><path d="M937.54987,-246.96612h-31.73664v-31.73664h31.73664z"/><path d="M969.02045,-246.96612h-31.73664v-31.73664h31.73664z"/><path d="M749.87896,-246.96612l-31.73664,0l0,-31.73664l31.73664,0z"/><path d="M781.34955,-246.96612l-31.73664,0v-31.73664l31.73664,0z"/><path d="M812.82014,-246.96612h-31.73664l0,-31.73664l31.73664,0z"/><path d="M844.29072,-246.96612l-31.73664,0l0,-31.73664h31.73664z"/><path d="M874.89136,-278.76379l-31.73664,0l0,-31.73664l31.73664,0z"/><path d="M906.36195,-278.76379l-31.73664,0l0,-31.73664l31.73664,0z"/><path d="M937.83253,-278.76379h-31.73664l0,-31.73664h31.73664z"/><path d="M969.30312,-278.76379l-31.73664,0l0,-31.73664h31.73664z"/><path d="M750.16162,-278.76379l-31.73664,0l0,-31.73664l31.73664,0z"/><path d="M781.63222,-278.76379l-31.73664,0v-31.73664l31.73664,0z"/><path d="M813.1028,-278.76379l-31.73664,0v-31.73664l31.73664,0z"/><path d="M844.57339,-278.76379l-31.73664,0v-31.73664l31.73664,0z"/><path d="M875.14141,-310.7499h-31.73664v-31.73664l31.73664,0z"/><path d="M906.612,-310.7499l-31.73664,0v-31.73664l31.73664,0z"/><path d="M938.08259,-310.7499l-31.73664,0v-31.73664h31.73664z"/><path d="M969.55318,-310.7499l-31.73664,0v-31.73664h31.73664z"/><path d="M750.41167,-310.7499l-31.73664,0v-31.73664l31.73664,0z"/><path d="M781.88227,-310.7499h-31.73664v-31.73664h31.73664z"/><path d="M813.35286,-310.7499h-31.73664l0,-31.73664h31.73664z"/><path d="M844.82345,-310.7499l-31.73664,0v-31.73664l31.73664,0z"/><path d="M875.42408,-342.54757h-31.73664v-31.73664l31.73664,0z"/><path d="M906.89467,-342.54757l-31.73664,0v-31.73664h31.73664z"/><path d="M938.36526,-342.54757l-31.73664,0v-31.73664l31.73664,0z"/><path d="M969.83585,-342.54757h-31.73664v-31.73664l31.73664,0z"/><path d="M750.69435,-342.54757l-31.73664,0l0,-31.73664h31.73664z"/><path d="M782.16494,-342.54757l-31.73664,0v-31.73664l31.73664,0z"/><path d="M813.63553,-342.54757l-31.73664,0v-31.73664h31.73664z"/><path d="M845.10612,-342.54757l-31.73664,0l0,-31.73664l31.73664,0z"/><path d="M875.7182,-374.31228l-31.73664,0l0,-31.73664l31.73664,0z"/><path d="M907.18879,-374.31228l-31.73664,0l0,-31.73664l31.73664,0z"/><path d="M938.65938,-374.31228l-31.73664,0v-31.73664l31.73664,0z"/><path d="M970.12996,-374.31228h-31.73664v-31.73664h31.73664z"/><path d="M750.98847,-374.31228l-31.73664,0l0,-31.73664l31.73664,0z"/><path d="M782.45906,-374.31228l-31.73664,0l0,-31.73664l31.73664,0z"/><path d="M813.92965,-374.31228l-31.73664,0l0,-31.73664h31.73664z"/><path d="M845.40024,-374.31228h-31.73664v-31.73664h31.73664z"/><path d="M874.01897,-151.46419l-31.73664,0l0,-31.73664l31.73664,0z"/><path d="M905.48956,-151.46419l-31.73664,0l0,-31.73664l31.73664,0z"/><path d="M936.96014,-151.46419l-31.73664,0l0,-31.73664l31.73664,0z"/><path d="M968.43073,-151.46419l-31.73664,0l0,-31.73664h31.73664z"/><path d="M749.28924,-151.46419l-31.73664,0l0,-31.73664l31.73664,0z"/><path d="M780.75983,-151.46419l-31.73664,0l0,-31.73664l31.73664,0z"/><path d="M812.23041,-151.46419h-31.73664l0,-31.73664h31.73664z"/><path d="M843.701,-151.46419l-31.73664,0v-31.73664h31.73664z"/><path d="M874.30164,-183.26186l-31.73664,0v-31.73664l31.73664,0z"/><path d="M905.77223,-183.26186h-31.73664v-31.73664l31.73664,0z"/><path d="M937.24281,-183.26186l-31.73664,0v-31.73664h31.73664z"/><path d="M968.7134,-183.26186h-31.73664v-31.73664l31.73664,0z"/><path d="M749.5719,-183.26186l-31.73664,0v-31.73664l31.73664,0z"/><path d="M781.0425,-183.26186l-31.73664,0l0,-31.73664h31.73664z"/><path d="M812.51308,-183.26186h-31.73664l0,-31.73664h31.73664z"/><path d="M843.98367,-183.26186h-31.73664v-31.73664l31.73664,0z"/><path d="M874.59576,-215.02656l-31.73664,0v-31.73664l31.73664,0z"/><path d="M906.06635,-215.02656h-31.73664v-31.73664l31.73664,0z"/><path d="M937.53693,-215.02656l-31.73664,0l0,-31.73664l31.73664,0z"/><path d="M969.00752,-215.02656l-31.73664,0l0,-31.73664h31.73664z"/><path d="M749.86603,-215.02656h-31.73664l0,-31.73664h31.73664z"/><path d="M781.33662,-215.02656l-31.73664,0v-31.73664l31.73664,0z"/><path d="M812.8072,-215.02656l-31.73664,0l0,-31.73664l31.73664,0z"/><path d="M844.27779,-215.02656l-31.73664,0l0,-31.73664l31.73664,0z"/><path d="M870.10244,513.35654h-31.73664v-31.73664h31.73664z"/><path d="M901.57303,513.35654h-31.73664v-31.73664h31.73664z"/><path d="M933.04362,513.35654h-31.73664v-31.73664h31.73664z"/><path d="M964.51421,513.35654l-31.73664,0v-31.73664h31.73664z"/><path d="M745.37271,513.35654h-31.73664v-31.73664h31.73664z"/><path d="M776.8433,513.35654h-31.73664v-31.73664h31.73664z"/><path d="M808.31389,513.35654h-31.73664v-31.73664h31.73664z"/><path d="M839.78448,513.35654h-31.73664l0,-31.73664h31.73664z"/><path d="M870.38511,481.55887h-31.73664v-31.73664h31.73664z"/><path d="M901.8557,481.55887h-31.73664v-31.73664l31.73664,0z"/><path d="M933.32628,481.55887h-31.73664v-31.73664h31.73664z"/><path d="M964.79687,481.55887h-31.73664v-31.73664h31.73664z"/><path d="M745.65538,481.55887h-31.73664l0,-31.73664h31.73664z"/><path d="M777.12597,481.55887h-31.73664v-31.73664h31.73664z"/><path d="M808.59655,481.55887h-31.73664l0,-31.73664h31.73664z"/><path d="M840.06713,481.55887h-31.73664v-31.73664h31.73664z"/><path d="M870.63516,449.57276h-31.73664v-31.73664h31.73664z"/><path d="M902.10575,449.57276h-31.73664v-31.73664h31.73664z"/><path d="M933.57634,449.57276h-31.73664l0,-31.73664l31.73664,0z"/><path d="M965.04693,449.57276l-31.73664,0v-31.73664l31.73664,0z"/><path d="M745.90543,449.57276l-31.73664,0v-31.73664h31.73664z"/><path d="M777.37602,449.57276l-31.73664,0v-31.73664h31.73664z"/><path d="M808.84661,449.57276l-31.73664,0v-31.73664h31.73664z"/><path d="M840.3172,449.57276h-31.73664v-31.73664h31.73664z"/><path d="M870.91783,417.77509h-31.73664v-31.73664h31.73664z"/><path d="M902.38842,417.77509h-31.73664v-31.73664h31.73664z"/><path d="M933.85901,417.77509l-31.73664,0v-31.73664h31.73664z"/><path d="M965.3296,417.77509l-31.73664,0v-31.73664h31.73664z"/><path d="M746.1881,417.77509h-31.73664v-31.73664l31.73664,0z"/><path d="M777.65869,417.77509h-31.73664v-31.73664h31.73664z"/><path d="M809.12927,417.77509h-31.73664v-31.73664l31.73664,0z"/><path d="M840.59987,417.77509h-31.73664v-31.73664l31.73664,0z"/><path d="M871.21195,386.01038h-31.73664v-31.73664h31.73664z"/><path d="M902.68254,386.01038h-31.73664v-31.73664l31.73664,0z"/><path d="M934.15313,386.01038l-31.73664,0v-31.73664h31.73664z"/><path d="M965.62372,386.01038l-31.73664,0v-31.73664l31.73664,0z"/><path d="M746.48222,386.01038h-31.73664v-31.73664h31.73664z"/><path d="M777.95281,386.01038l-31.73664,0v-31.73664h31.73664z"/><path d="M809.4234,386.01038l-31.73664,0v-31.73664h31.73664z"/><path d="M840.89399,386.01038l-31.73664,0v-31.73664h31.73664z"/><path d="M869.51272,608.85847h-31.73664v-31.73664h31.73664z"/><path d="M900.98331,608.85847h-31.73664v-31.73664h31.73664z"/><path d="M932.45389,608.85847h-31.73664v-31.73664h31.73664z"/><path d="M963.92448,608.85847h-31.73664l0,-31.73664l31.73664,0z"/><path d="M744.78299,608.85847h-31.73664l0,-31.73664h31.73664z"/><path d="M776.25358,608.85847h-31.73664v-31.73664h31.73664z"/><path d="M807.72416,608.85847h-31.73664v-31.73664h31.73664z"/><path d="M839.19475,608.85847h-31.73664v-31.73664h31.73664z"/><path d="M869.79539,577.0608l-31.73664,0v-31.73664h31.73664z"/><path d="M901.26598,577.0608h-31.73664l0,-31.73664h31.73664z"/><path d="M932.73656,577.0608h-31.73664v-31.73664h31.73664z"/><path d="M964.20715,577.0608h-31.73664v-31.73664h31.73664z"/><path d="M745.06566,577.0608l-31.73664,0v-31.73664h31.73664z"/><path d="M776.53625,577.0608h-31.73664l0,-31.73664h31.73664z"/><path d="M808.00683,577.0608h-31.73664v-31.73664h31.73664z"/><path d="M839.47741,577.0608l-31.73664,0v-31.73664h31.73664z"/><path d="M870.08951,545.2961h-31.73664v-31.73664h31.73664z"/><path d="M901.5601,545.2961h-31.73664v-31.73664h31.73664z"/><path d="M933.03068,545.2961h-31.73664v-31.73664h31.73664z"/><path d="M964.50127,545.2961h-31.73664v-31.73664h31.73664z"/><path d="M745.35977,545.2961h-31.73664v-31.73664h31.73664z"/><path d="M776.83037,545.2961h-31.73664l0,-31.73664h31.73664z"/><path d="M808.30095,545.2961h-31.73664v-31.73664h31.73664z"/><path d="M839.77154,545.2961h-31.73664v-31.73664h31.73664z"/><path d="M871.37032,260.64238h-31.73664l0,-31.73664h31.73664z"/><path d="M902.84091,260.64238h-31.73664l0,-31.73664l31.73664,0z"/><path d="M934.3115,260.64238h-31.73664v-31.73664h31.73664z"/><path d="M965.78208,260.64238h-31.73664v-31.73664l31.73664,0z"/><path d="M746.64059,260.64238l-31.73664,0l0,-31.73664h31.73664z"/><path d="M778.11118,260.64238l-31.73664,0v-31.73664h31.73664z"/><path d="M809.58177,260.64238h-31.73664v-31.73664h31.73664z"/><path d="M841.05235,260.64238h-31.73664v-31.73664h31.73664z"/><path d="M871.65299,228.84471l-31.73664,0v-31.73664h31.73664z"/><path d="M903.12358,228.84471l-31.73664,0v-31.73664h31.73664z"/><path d="M934.59416,228.84471l-31.73664,0l0,-31.73664l31.73664,0z"/><path d="M966.06475,228.84471l-31.73664,0v-31.73664h31.73664z"/><path d="M746.92325,228.84471h-31.73664v-31.73664l31.73664,0z"/><path d="M778.39385,228.84471h-31.73664v-31.73664h31.73664z"/><path d="M809.86443,228.84471h-31.73664v-31.73664h31.73664z"/><path d="M841.33502,228.84471l-31.73664,0v-31.73664l31.73664,0z"/><path d="M871.90304,196.8586l-31.73664,0v-31.73664l31.73664,0z"/><path d="M903.37363,196.8586l-31.73664,0v-31.73664l31.73664,0z"/><path d="M934.84422,196.8586h-31.73664v-31.73664h31.73664z"/><path d="M966.31481,196.8586l-31.73664,0v-31.73664l31.73664,0z"/><path d="M747.1733,196.8586h-31.73664v-31.73664l31.73664,0z"/><path d="M778.6439,196.8586h-31.73664v-31.73664l31.73664,0z"/><path d="M810.11449,196.8586h-31.73664v-31.73664l31.73664,0z"/><path d="M841.58508,196.8586h-31.73664v-31.73664h31.73664z"/><path d="M872.18571,165.06093h-31.73664v-31.73664l31.73664,0z"/><path d="M903.6563,165.06093l-31.73664,0l0,-31.73664l31.73664,0z"/><path d="M935.12689,165.06093l-31.73664,0v-31.73664l31.73664,0z"/><path d="M966.59748,165.06093l-31.73664,0v-31.73664l31.73664,0z"/><path d="M747.45598,165.06093l-31.73664,0v-31.73664l31.73664,0z"/><path d="M778.92657,165.06093l-31.73664,0v-31.73664h31.73664z"/><path d="M810.39716,165.06093l-31.73664,0l0,-31.73664h31.73664z"/><path d="M841.86775,165.06093l-31.73664,0l0,-31.73664l31.73664,0z"/><path d="M872.47983,133.29622l-31.73664,0v-31.73664l31.73664,0z"/><path d="M903.95042,133.29622h-31.73664v-31.73664l31.73664,0z"/><path d="M935.42101,133.29622l-31.73664,0v-31.73664l31.73664,0z"/><path d="M966.89159,133.29622l-31.73664,0v-31.73664h31.73664z"/><path d="M747.7501,133.29622l-31.73664,0l0,-31.73664l31.73664,0z"/><path d="M779.22069,133.29622h-31.73664v-31.73664l31.73664,0z"/><path d="M810.69128,133.29622l-31.73664,0v-31.73664l31.73664,0z"/><path d="M842.16187,133.29622h-31.73664v-31.73664l31.73664,0z"/><path d="M870.7806,356.14431h-31.73664v-31.73664h31.73664z"/><path d="M902.25119,356.14431h-31.73664v-31.73664l31.73664,0z"/><path d="M933.72177,356.14431h-31.73664v-31.73664h31.73664z"/><path d="M965.19236,356.14431h-31.73664v-31.73664h31.73664z"/><path d="M746.05087,356.14431h-31.73664v-31.73664h31.73664z"/><path d="M777.52146,356.14431h-31.73664v-31.73664h31.73664z"/><path d="M808.99204,356.14431h-31.73664v-31.73664l31.73664,0z"/><path d="M840.46263,356.14431h-31.73664v-31.73664l31.73664,0z"/><path d="M871.06327,324.34664h-31.73664v-31.73664h31.73664z"/><path d="M902.53386,324.34664h-31.73664v-31.73664h31.73664z"/><path d="M934.00444,324.34664h-31.73664v-31.73664h31.73664z"/><path d="M965.47503,324.34664h-31.73664v-31.73664h31.73664z"/><path d="M746.33353,324.34664l-31.73664,0v-31.73664h31.73664z"/><path d="M777.80413,324.34664l-31.73664,0v-31.73664h31.73664z"/><path d="M809.27471,324.34664h-31.73664v-31.73664h31.73664z"/><path d="M840.7453,324.34664h-31.73664v-31.73664h31.73664z"/><path d="M871.35739,292.58194h-31.73664v-31.73664h31.73664z"/><path d="M902.82798,292.58194h-31.73664v-31.73664l31.73664,0z"/><path d="M934.29856,292.58194h-31.73664v-31.73664h31.73664z"/><path d="M965.76915,292.58194h-31.73664v-31.73664l31.73664,0z"/><path d="M746.62766,292.58194h-31.73664v-31.73664h31.73664z"/><path d="M778.09825,292.58194h-31.73664v-31.73664h31.73664z"/><path d="M809.56883,292.58194h-31.73664v-31.73664l31.73664,0z"/><path d="M841.03942,292.58194h-31.73664v-31.73664h31.73664z"/></g></g></g></svg>