<svg version="1.1" xmlns="http://www.w3.org/2000/svg" xmlns:xlink="http://www.w3.org/1999/xlink" width="33.37656" height="33.2123" viewBox="0,0,33.37656,33.2123"><g transform="translate(-303.56824,-163.38168)"><g stroke-miterlimit="10"><path d="M304.13167,195.86832v-31.73664h31.73664v31.73664z" fill="#00ff8a" stroke="none" stroke-width="0" stroke-linecap="butt"/><path d="M303.56825,164.45817c0,-0.59453 0.48197,-1.07649 1.07649,-1.07649c0.59453,0 1.07649,0.48197 1.07649,1.07649c0,0.59453 -0.48197,1.07649 -1.07649,1.07649c-0.59453,0 -1.07649,-0.48197 -1.07649,-1.07649z" fill="#ff0000" stroke="none" stroke-width="0.5" stroke-linecap="butt"/><text transform="translate(308.56001,186) scale(0.5,0.5)" font-size="40" xml:space="preserve" fill="#000000" stroke="none" stroke-width="1" stroke-linecap="butt" font-family="Sans Serif" font-weight="normal" text-anchor="start"><tspan x="0" dy="0">20</tspan></text><path d="M305.53557,165.03534l5.40254,5.40254" fill="none" stroke="#000000" stroke-width="0.5" stroke-linecap="round"/><path d="M334.79183,195.51749c0,-0.59453 0.48197,-1.07649 1.07649,-1.07649c0.59453,0 1.07649,0.48197 1.07649,1.07649c0,0.59453 -0.48197,1.07649 -1.07649,1.07649c-0.59453,0 -1.07649,-0.48197 -1.07649,-1.07649z" fill="#ff0000" stroke="none" stroke-width="0.5" stroke-linecap="butt"/><path d="M335.65268,194.86724l-5.24364,-5.24364" fill="none" stroke="#000000" stroke-width="0.5" stroke-linecap="round"/><path d="M305.48706,195.00542v-30.06757h29.72973v30.06757z" fill="#00ff8a" stroke="none" stroke-width="0" stroke-linecap="butt"/></g></g></svg>