<svg version="1.1" xmlns="http://www.w3.org/2000/svg" xmlns:xlink="http://www.w3.org/1999/xlink" width="414.96832" height="318.88717" viewBox="0,0,414.96832,318.88717"><g transform="translate(-81.38849,-68.74092)"><g stroke="#000000" stroke-width="0" stroke-miterlimit="10"><path d="M240.97878,290.2433v-31.73664h31.73664v31.73664z" fill="#00a759"/><path d="M208.91996,290.2433v-31.73664h31.73664v31.73664z" fill="#00a759"/><path d="M177.44937,257.3482v-31.73664h31.73664v31.73664z" fill="#00a759"/><path d="M145.97878,227.008v-31.73664h31.73664v31.73664z" fill="#00a759"/><path d="M145.97878,196.41976v-31.73664h31.73664v31.73664z" fill="#00a759"/><path d="M177.44937,164.94918v-31.73664h31.73664v31.73664z" fill="#00a759"/><path d="M177.44937,134.65506v-31.73664h31.73664v31.73664z" fill="#00a759"/><path d="M208.91996,102.59623v-31.73664h31.73664v31.73664z" fill="#00a759"/><path d="M240.97878,133.34258v-31.73664h31.73664v31.73664z" fill="#00a759"/><path d="M270.68466,164.44958v-31.73664h31.73664v31.73664z" fill="#00a759"/><path d="M304.50819,164.94918v-31.73664h31.73664v31.73664z" fill="#00a759"/><path d="M396.93652,288.9858v-31.73664h31.73664v31.73664z" fill="#00a759"/><path d="M208.91996,135.8399v-31.73664h31.73664v31.73664z" fill="#b000bd"/><path d="M304.50819,289.45618v-31.73664h31.73664v31.73664z" fill="#00a759"/><path d="M270.68466,289.06682v-31.73664h31.73664v31.73664z" fill="#00a759"/><path d="M335.53558,164.94918v-31.73664h31.73664v31.73664z" fill="#00a759"/><path d="M367.58232,289.12757v-31.73664h31.73664v31.73664z" fill="#00a759"/><path d="M335.53558,288.57962v-31.73664h31.73664v31.73664z" fill="#00a759"/><path d="M367.58232,134.00596v-31.73664h31.73664v31.73664z" fill="#00a759"/><path d="M396.93652,100.47756v-31.73664h31.73664v31.73664z" fill="#00a759"/><path d="M429.00763,133.34258v-31.73664h31.73664v31.73664z" fill="#00a759"/><path d="M429.00763,163.78289v-31.73664h31.73664v31.73664z" fill="#00a759"/><path d="M464.62017,196.41976v-31.73664h31.73664v31.73664z" fill="#00a759"/><path d="M464.62017,223.73851v-31.73664h31.73664v31.73664z" fill="#00a759"/><path d="M429.00763,255.80404v-31.73664h31.73664v31.73664z" fill="#00a759"/><path d="M240.97878,226.53316v-31.73664h31.73664v31.73664z" fill="#00a759"/><path d="M367.58232,228.58063v-31.73664h31.73664v31.73664z" fill="#00a759"/><path d="M368.12805,387.62809v-31.73664h31.73664v31.73664z" fill="#ff9f00"/><path d="M400.63346,387.58987v-31.73664h31.73664v31.73664z" fill="#00ebff"/><path d="M81.38849,133.21254h31.73664v31.73664h-31.73664z" fill="#6f0000"/><path d="M396.93652,133.53483v-31.73664h31.73664v31.73664z" fill="#0021fe"/></g></g></svg>