<svg version="1.1" xmlns="http://www.w3.org/2000/svg" xmlns:xlink="http://www.w3.org/1999/xlink" width="32.44384" height="35.57381" viewBox="0,0,32.44384,35.57381"><g transform="translate(-223.80427,-163.82708)"><g stroke-miterlimit="10"><path d="M224.13168,195.86832v-31.73664h31.73664v31.73664z" fill="none" stroke="none" stroke-width="0" stroke-linecap="butt"/><path d="M224.22918,195.98094l11.91696,-11.88741h7.96053l11.70028,11.86811z" fill="#bb00ff" stroke="none" stroke-width="0" stroke-linecap="round"/><path d="M255.81508,164.03343l-11.91695,11.88741h-7.96052l-11.70029,-11.86811z" fill="#6a0090" stroke="none" stroke-width="0" stroke-linecap="round"/><path d="M255.90871,195.83451l-11.88741,-11.91695v-7.96052l11.8681,-11.70029z" fill="#9000c5" stroke="none" stroke-width="0" stroke-linecap="round"/><path d="M224.04095,164.21111l11.88741,11.91695v7.96053l-11.86811,11.70029z" fill="#9000c5" stroke="none" stroke-width="0" stroke-linecap="round"/><g fill="none" stroke="#000000" stroke-width="0.5" stroke-linecap="round"><path d="M244.17246,175.96853h-8.19079l-11.875,-11.875"/><path d="M244.12312,184.14287v-8.19079l11.875,-11.875"/><path d="M235.87994,184.12271h8.19079l11.875,11.875"/><path d="M235.92928,175.94837v8.19079l-11.875,11.875"/></g><path d="M237.88625,194.68102v-4.27989h4.27989v4.27989z" fill="none" stroke="#000000" stroke-width="0.5" stroke-linecap="butt"/><path d="M242.88625,199.15089v-4.27989h4.27989v4.27989z" fill="none" stroke="#000000" stroke-width="0.5" stroke-linecap="butt"/><path d="M237.87393,194.71817l1.86568,-8.39552l-0.42963,-1.29881l-1.39665,5.34218" fill="none" stroke="#000000" stroke-width="0.5" stroke-linecap="round"/><path d="M242.27658,194.73659l-1.63246,-8.17623l0.28106,-1.55495l1.39445,5.65862" fill="none" stroke="#000000" stroke-width="0.5" stroke-linecap="round"/><path d="M239.79299,186.38505l0.46642,0.04664" fill="none" stroke="#000000" stroke-width="0.5" stroke-linecap="round"/></g></g></svg>