<svg version="1.1" xmlns="http://www.w3.org/2000/svg" xmlns:xlink="http://www.w3.org/1999/xlink" width="369.75271" height="320.25595" viewBox="0,0,369.75271,320.25595"><g transform="translate(-81.3885,-67.37214)"><g stroke="#000000" stroke-width="0" stroke-miterlimit="10"><path d="M288.31353,290.81142v-31.73664h31.73664v31.73664z" fill="#00a759"/><path d="M187.02262,192.169v-31.73664h31.73664v31.73664z" fill="#00a759"/><path d="M221.7396,226.86223v-31.73664h31.73664v31.73664z" fill="#00a759"/><path d="M189.66011,224.5316v-31.73664h31.73664v31.73664z" fill="#00a759"/><path d="M256.03063,291.36798v-31.73664h31.73664v31.73664z" fill="#00a759"/><path d="M189.4677,257.46179v-31.73664h31.73664v31.73664z" fill="#00a759"/><path d="M188.85879,290.49367v-31.73664h31.73664v31.73664z" fill="#00a759"/><path d="M222.765,322.36975v-31.73664h31.73664v31.73664z" fill="#00a759"/><path d="M189.0622,322.062v-31.73664h31.73664v31.73664z" fill="#00a759"/><path d="M254.08451,226.51699v-31.73664h31.73664v31.73664z" fill="#00a759"/><path d="M254.41832,322.0056v-31.73664h31.73664v31.73664z" fill="#00a759"/><path d="M419.30621,131.84782v-31.73664h31.73664v31.73664z" fill="#00a759"/><path d="M221.54719,290.4607v-31.73664h31.73664v31.73664z" fill="#ff0088"/><path d="M353.66965,260.18801v-31.73664h31.73664v31.73664z" fill="#00a759"/><path d="M322.89064,228.13565v-31.73664h31.73664v31.73664z" fill="#00a759"/><path d="M321.37104,259.8974v-31.73664h31.73664v31.73664z" fill="#00a759"/><path d="M386.29859,99.10878v-31.73664h31.73664v31.73664z" fill="#00a759"/><path d="M419.40457,194.76764v-31.73664h31.73664v31.73664z" fill="#00a759"/><path d="M321.14587,130.31175v-31.73664h31.73664v31.73664z" fill="#00a759"/><path d="M290.8275,99.21897v-31.73664h31.73664v31.73664z" fill="#00a759"/><path d="M353.34379,99.20318v-31.73664h31.73664v31.73664z" fill="#00a759"/><path d="M322.28969,101.02501v-31.73664h31.73664v31.73664z" fill="#00a759"/><path d="M321.36801,164.71598v-31.73664h31.73664v31.73664z" fill="#00a759"/><path d="M353.63992,164.63405v-31.73664h31.73664v31.73664z" fill="#00a759"/><path d="M419.10542,163.20987v-31.73664h31.73664v31.73664z" fill="#00a759"/><path d="M252.57116,163.88177v-31.73664h31.73664v31.73664z" fill="#00a759"/><path d="M387.5164,227.93095v-31.73664h31.73664v31.73664z" fill="#00a759"/><path d="M368.12806,387.62809v-31.73664h31.73664v31.73664z" fill="#ff9f00"/><path d="M400.63347,387.58987v-31.73664h31.73664v31.73664z" fill="#00ebff"/><path d="M81.3885,133.21254h31.73664v31.73664h-31.73664z" fill="#6f0000"/><path d="M351.71787,131.05844v-31.73664h31.73664v31.73664z" fill="#0021fe"/><path d="M259.29326,99.34774v-31.73664h31.73664v31.73664z" fill="#00a759"/><path d="M225.32341,99.47651v-31.73664h31.73664v31.73664z" fill="#00a759"/><path d="M192.57137,99.60528v-31.73664h31.73664v31.73664z" fill="#00a759"/><path d="M189.04672,132.61486v-31.73664h31.73664v31.73664z" fill="#00a759"/><path d="M188.56658,161.36211v-31.73664h31.73664v31.73664z" fill="#00a759"/><path d="M220.54131,131.04569v-31.73664h31.73664v31.73664z" fill="#adaa00"/><path d="M289.76658,228.05194v-31.73664h31.73664v31.73664z" fill="#818181"/></g></g></svg>