<svg version="1.1" xmlns="http://www.w3.org/2000/svg" xmlns:xlink="http://www.w3.org/1999/xlink" width="67.23654" height="75.21375" viewBox="0,0,67.23654,75.21375"><g transform="translate(-272.71461,-124.15373)"><g stroke-linecap="round" stroke-miterlimit="10"><path d="M272.71461,124.15373l16.14544,5.72082" fill="none" stroke="none" stroke-width="0"/><path d="M304.69586,162.18176c1.16436,0.06098 4.29606,-0.11698 6.57963,0.03149c3.4162,0.2221 7.29204,0.45727 8.43243,0.51003c2.34259,0.10838 3.66269,0.12885 6.0077,0.1086c1.27195,-0.01098 7.6357,-0.33095 10.88768,0.67469c1.47703,0.45675 1.57663,2.21497 1.60163,2.59472c0.13543,2.0574 -0.08088,17.99536 -0.49393,25.12602c-0.11431,1.97342 -0.12595,4.22351 -0.26711,4.24024c-2.25559,0.2673 -9.59235,1.85923 -15.27726,2.15225c-7.27128,0.37478 -13.22548,-0.58916 -17.24631,-0.73499c-0.95049,-0.03447 -0.68836,-7.85172 -0.51684,-16.02404c0.19446,-9.26519 -0.28743,-18.70937 0.29238,-18.679z" fill="#ec6841" stroke="#000000" stroke-width="3.5"/><path d="M323.08191,160.19118l7.68596,-11.55473l4.28144,12.63799" fill="#ec6841" stroke="#000000" stroke-width="3.5"/><path d="M304.8359,161.06584l8.8578,-14.18323l5.20995,13.82441" fill="#ec6841" stroke="#000000" stroke-width="3.5"/><path d="M308.74168,174.32509c0,0 2.69597,-1.47203 3.92496,-1.41058c1.1759,0.0588 3.29674,1.77167 3.29674,1.77167" fill="none" stroke="#000000" stroke-width="3.5"/><path d="M324.16517,173.70608c0,0 2.00025,-1.57523 3.16132,-1.68323c1.04472,-0.09718 3.49296,1.06423 3.49296,1.06423" fill="none" stroke="#000000" stroke-width="3.5"/><path d="M326.12535,180.05086c0,0 -2.28245,1.50892 -2.9503,1.03188c-0.42548,-0.30391 -2.28709,-1.29356 -2.60024,-1.87891c-0.1696,-0.31702 -2.0408,1.68606 -2.58239,1.95288c-1.26479,0.6231 -3.62813,-1.31218 -3.62813,-1.31218" fill="none" stroke="#000000" stroke-width="3.5"/></g></g></svg>