<svg version="1.1" xmlns="http://www.w3.org/2000/svg" xmlns:xlink="http://www.w3.org/1999/xlink" width="660.60174" height="317.29239" viewBox="0,0,660.60174,317.29239"><g transform="translate(-80.2969,-70.75941)"><g stroke="#000000" stroke-width="0" stroke-miterlimit="10"><path d="M179.52308,102.99256v-31.73664h280.68778v31.73664z" fill="#00a759"/><path d="M460.21085,194.50684v-31.73664h31.73664v31.73664z" fill="#00a759"/><path d="M303.99865,323.01247v-31.73664h31.73664v31.73664z" fill="#b000bd"/><path d="M179.52308,292.04394v-31.73664h63.52941v31.73664z" fill="#00a759"/><path d="M709.06673,261.54547v-31.73664h31.73664v31.73664z" fill="#00a759"/><path d="M460.21086,226.9222v-31.73664h280.68778v31.73664z" fill="#00a759"/><path d="M460.21085,163.74176v-31.73664h31.73664v31.73664z" fill="#00a759"/><path d="M460.21085,135.27354v-31.73664h31.73664v31.73664z" fill="#00a759"/><path d="M148.0525,289.57086v-218.3779h31.73664v218.3779z" fill="#00a759"/><path d="M491.9475,289.57086h-31.73664v-31.73664h31.73664z" fill="#00a759"/><path d="M460.21085,102.49605v-31.73664h31.73664v31.73664z" fill="#00a759"/><path d="M273.19623,289.57086v-31.73664h467.70241v31.73664z" fill="#00a759"/><path d="M209.5596,291.59501h31.73664v63.52941h-31.73664z" fill="#00a759"/><path d="M273.22429,257.80616h31.73664v63.52941h-31.73664z" fill="#00a759"/><path d="M209.35743,388.0518v-31.73664h157.79908v31.73664z" fill="#00a759"/><path d="M335.41986,291.59501h31.73664v63.52941h-31.73664z" fill="#00a759"/><path d="M179.26008,261.54547v-31.73664h31.73664v31.73664z" fill="#0021fe"/><path d="M366.70354,323.05069v-31.73664h31.73664v31.73664z" fill="#ff9f00"/><path d="M212.47344,131.00004v-31.73664h31.73664v31.73664z" fill="#00a759"/><path d="M460.21086,257.7864v-31.73664h31.73664v31.73664z" fill="#fff100"/><path d="M399.20895,323.01247v-31.73664h31.73664v31.73664z" fill="#00ebff"/><path d="M584.68643,257.7864v-31.73664h31.73664v31.73664z" fill="#b000bd"/><path d="M80.2969,132.00512h31.73664v31.73664h-31.73664z" fill="#6f0000"/></g></g></svg>