<svg version="1.1" xmlns="http://www.w3.org/2000/svg" xmlns:xlink="http://www.w3.org/1999/xlink" width="349.22846" height="349.10993" viewBox="0,0,349.22846,349.10993"><g transform="translate(-145.96414,-38.51816)"><g stroke="#000000" stroke-width="0" stroke-miterlimit="10"><path d="M304.13169,290.2433v-31.73664h31.73664v31.73664z" fill="#00a759"/><path d="M272.07286,290.2433v-31.73664h31.73664v31.73664z" fill="#00a759"/><path d="M209.13168,260.08519v-31.73664h31.73664v31.73664z" fill="#00a759"/><path d="M209.13168,227.008v-31.73664h31.73664v31.73664z" fill="#00a759"/><path d="M209.13168,196.41976v-31.73664h31.73664v31.73664z" fill="#00a759"/><path d="M209.13168,132.46531v-31.73664h31.73664v31.73664z" fill="#00a759"/><path d="M240.60231,102.82743v-31.73664h31.73664v31.73664z" fill="#00a759"/><path d="M272.07286,102.59623v-31.73664h31.73664v31.73664z" fill="#00a759"/><path d="M300.52236,102.59623v-31.73664h31.73664v31.73664z" fill="#00a759"/><path d="M333.83759,102.76304v-31.73664h31.73664v31.73664z" fill="#00a759"/><path d="M367.66114,101.29392v-31.73664h31.73664v31.73664z" fill="#00a759"/><path d="M430.73527,195.86832v-31.73664h31.73664v31.73664z" fill="#00a759"/><path d="M398.68853,260.14811v-31.73664h31.73664v31.73664z" fill="#b000bd"/><path d="M240.60231,291.87881v-31.73664h31.73664v31.73664z" fill="#00a759"/><path d="M333.83759,290.70742v-31.73664h31.73664v31.73664z" fill="#00a759"/><path d="M398.68853,102.93452v-31.73664h31.73664v31.73664z" fill="#00a759"/><path d="M367.66114,291.44239v-31.73664h31.73664v31.73664z" fill="#00a759"/><path d="M430.73527,260.16271v-31.73664h31.73664v31.73664z" fill="#00a759"/><path d="M398.68853,290.45803v-31.73664h31.73664v31.73664z" fill="#00a759"/><path d="M430.73527,228.75851v-31.73664h31.73664v31.73664z" fill="#00a759"/><path d="M209.13168,163.68597v-31.73664h31.73664v31.73664z" fill="#00a759"/><path d="M430.73527,165.10324v-31.73664h31.73664v31.73664z" fill="#00a759"/><path d="M430.73527,136.63502v-31.73664h31.73664v31.73664z" fill="#00a759"/><path d="M209.13168,102.76447v-31.73664h31.73664v31.73664z" fill="#00a759"/><path d="M176.74368,132.46531v-31.73664h31.73664v31.73664z" fill="#00a759"/><path d="M239.04446,72.81516v-31.73664h31.73664v31.73664z" fill="#00a759"/><path d="M269.73614,71.58383v-31.73664h31.73664v31.73664z" fill="#00a759"/><path d="M301.79495,73.0787v-31.73664h31.73664v31.73664z" fill="#00a759"/><path d="M331.11136,72.23681v-31.73664h31.73664v31.73664z" fill="#00a759"/><path d="M364.93492,72.95277v-31.73664h31.73664v31.73664z" fill="#00a759"/><path d="M395.96232,72.11089v-31.73664h31.73664v31.73664z" fill="#00a759"/><path d="M462.47189,290.93234h-31.73664v-31.73664h31.73664z" fill="#00a759"/><path d="M493.69771,262.96688h-31.73664v-31.73664h31.73664z" fill="#00a759"/><path d="M495.1926,230.90805h-31.73664v-31.73664h31.73664z" fill="#00a759"/><path d="M494.35072,201.59164h-31.73664v-31.73664h31.73664z" fill="#00a759"/><path d="M495.06663,167.76811h-31.73664v-31.73664h31.73664z" fill="#00a759"/><path d="M494.22475,136.74072h-31.73664v-31.73664h31.73664z" fill="#00a759"/><path d="M207.73286,256.28312h-31.73664v-31.73664h31.73664z" fill="#00a759"/><path d="M209.22775,224.22429h-31.73664v-31.73664h31.73664z" fill="#00a759"/><path d="M208.38588,194.90788h-31.73664v-31.73664h31.73664z" fill="#00a759"/><path d="M209.10184,161.08435h-31.73664v-31.73664h31.73664z" fill="#00a759"/><path d="M209.13168,291.56838v-31.73664h31.73664v31.73664z" fill="#00a759"/><path d="M302.90036,316.27407v-31.73664h31.73664v31.73664z" fill="#00a759"/><path d="M270.84153,316.27407v-31.73664h31.73664v31.73664z" fill="#00a759"/><path d="M239.37093,317.90958v-31.73664h31.73664v31.73664z" fill="#00a759"/><path d="M332.60623,316.73819v-31.73664h31.73664v31.73664z" fill="#00a759"/><path d="M366.4298,317.47317v-31.73664h31.73664v31.73664z" fill="#00a759"/><path d="M397.45719,316.4888v-31.73664h31.73664v31.73664z" fill="#00a759"/><path d="M430.73527,103.85753v-31.73664h31.73664v31.73664z" fill="#00a759"/><path d="M209.13168,70.2548v-31.73664h31.73664v31.73664z" fill="#00a759"/><path d="M175.9962,102.32363v-31.73664h31.73664v31.73664z" fill="#00a759"/><path d="M430.73527,72.12125v-31.73664h31.73664v31.73664z" fill="#00a759"/><path d="M461.96106,103.44376v-31.73664h31.73664v31.73664z" fill="#00a759"/><path d="M495.1926,289.62194h-31.73664v-31.73664h31.73664z" fill="#00a759"/><path d="M462.47189,316.81401h-31.73664v-31.73664h31.73664z" fill="#00a759"/><path d="M240.86833,322.5874h-31.73664v-31.73664h31.73664z" fill="#00a759"/><path d="M209.22775,284.27727h-31.73664v-31.73664h31.73664z" fill="#00a759"/><path d="M240.60231,134.76484v-31.73664h31.73664v31.73664z" fill="#0021fe"/><path d="M398.68853,132.894v-31.73664h31.73664v31.73664z" fill="#fff100"/><path d="M244.29233,259.45145v-31.73664h31.73664v31.73664z" fill="#fff100"/><path d="M368.12805,387.62809v-31.73664h31.73664v31.73664z" fill="#ff9f00"/><path d="M400.63346,387.58987v-31.73664h31.73664v31.73664z" fill="#00ebff"/><path d="M145.96414,129.34771h31.73664v31.73664h-31.73664z" fill="#6f0000"/></g></g></svg>