<svg version="1.1" xmlns="http://www.w3.org/2000/svg" xmlns:xlink="http://www.w3.org/1999/xlink" width="383.60944" height="221.22257" viewBox="0,0,383.60944,221.22257"><g transform="translate(-81.3885,-69.02076)"><g stroke="#000000" stroke-width="0" stroke-miterlimit="10"><path d="M240.97878,290.24334v-31.73664h31.73664v31.73664z" fill="#00a759"/><path d="M208.91996,290.24334v-31.73664h31.73664v31.73664z" fill="#00a759"/><path d="M177.44937,289.05744v-31.73664h31.73664v31.73664z" fill="#00a759"/><path d="M145.97878,227.00804v-31.73664h31.73664v31.73664z" fill="#00a759"/><path d="M145.97878,196.4198v-31.73664h31.73664v31.73664z" fill="#00a759"/><path d="M145.97878,134.78678v-31.73664h31.73664v31.73664z" fill="#00a759"/><path d="M177.44937,102.55918v-31.73664h31.73664v31.73664z" fill="#00a759"/><path d="M208.91996,102.59626v-31.73664h31.73664v31.73664z" fill="#00a759"/><path d="M240.97878,102.0201v-31.73664h31.73664v31.73664z" fill="#00a759"/><path d="M270.68466,101.8046v-31.73664h31.73664v31.73664z" fill="#00a759"/><path d="M299.6599,163.7891v-31.73664h31.73664v31.73664z" fill="#00a759"/><path d="M396.93652,288.98582v-31.73664h31.73664v31.73664z" fill="#00a759"/><path d="M367.58232,198.09825v-31.73664h31.73664v31.73664z" fill="#b000bd"/><path d="M304.50819,289.45619v-31.73664h31.73664v31.73664z" fill="#00a759"/><path d="M270.68466,289.06685v-31.73664h31.73664v31.73664z" fill="#00a759"/><path d="M299.6599,100.75741v-31.73664h31.73664v31.73664z" fill="#00a759"/><path d="M367.58232,289.12757v-31.73664h31.73664v31.73664z" fill="#00a759"/><path d="M335.53558,288.57966v-31.73664h31.73664v31.73664z" fill="#00a759"/><path d="M335.53558,101.91008v-31.73664h31.73664v31.73664z" fill="#00a759"/><path d="M367.58232,102.79777v-31.73664h31.73664v31.73664z" fill="#00a759"/><path d="M429.00763,134.11601v-31.73664h31.73664v31.73664z" fill="#00a759"/><path d="M429.00763,168.03659v-31.73664h31.73664v31.73664z" fill="#00a759"/><path d="M433.2613,198.09825v-31.73664h31.73664v31.73664z" fill="#00a759"/><path d="M396.93652,104.24898v-31.73664h31.73664v31.73664z" fill="#00a759"/><path d="M433.2613,229.12194v-31.73664h31.73664v31.73664z" fill="#00a759"/><path d="M240.97878,224.21301v-31.73664h31.73664v31.73664z" fill="#00a759"/><path d="M367.58232,228.58067v-31.73664h31.73664v31.73664z" fill="#00a759"/><path d="M270.68466,224.18594v-31.73664h31.73664v31.73664z" fill="#00a759"/><path d="M299.6599,224.21301v-31.73664h31.73664v31.73664z" fill="#00a759"/><path d="M299.6599,191.31664v-31.73664h31.73664v31.73664z" fill="#00a759"/><path d="M266.76354,163.78292v-31.73664h31.73664v31.73664z" fill="#00a759"/><path d="M240.97878,163.75583v-31.73664h31.73664v31.73664z" fill="#00a759"/><path d="M240.97878,194.66459v-31.73664h31.73664v31.73664z" fill="#00a759"/><path d="M270.68466,191.54394v-31.73664h31.73664v31.73664z" fill="#00a759"/><path d="M429.00763,260.72981v-31.73664h31.73664v31.73664z" fill="#00a759"/><path d="M145.97878,254.43649v-31.73664h31.73664v31.73664z" fill="#00a759"/><path d="M144.43199,165.30883v-31.73664h31.73664v31.73664z" fill="#00a759"/><path d="M396.93652,135.11703v-31.73664h31.73664v31.73664z" fill="#00a759"/><path d="M366.15154,198.81363v-31.73664h31.73664v31.73664z" fill="#b000bd"/><path d="M81.3885,133.21257h31.73664v31.73664h-31.73664z" fill="#6f0000"/><path d="M158.99918,132.30484v-31.73664h31.73664v31.73664z" fill="#0021fe"/></g></g></svg>