<svg version="1.1" xmlns="http://www.w3.org/2000/svg" xmlns:xlink="http://www.w3.org/1999/xlink" width="317.16003" height="316.7685" viewBox="0,0,317.16003,316.7685"><g transform="translate(-145.96414,-70.85959)"><g stroke="#000000" stroke-width="0" stroke-miterlimit="10"><path d="M304.13168,290.2433v-31.73664h31.73664v31.73664z" fill="#00a759"/><path d="M272.07286,290.2433v-31.73664h31.73664v31.73664z" fill="#00a759"/><path d="M240.60227,258.77271v-31.73664h31.73664v31.73664z" fill="#00a759"/><path d="M209.13168,227.008v-31.73664h31.73664v31.73664z" fill="#00a759"/><path d="M209.13168,196.41976v-31.73664h31.73664v31.73664z" fill="#00a759"/><path d="M209.13168,132.46531v-31.73664h31.73664v31.73664z" fill="#00a759"/><path d="M240.60227,102.82743v-31.73664h31.73664v31.73664z" fill="#00a759"/><path d="M272.07286,102.59623v-31.73664h31.73664v31.73664z" fill="#00a759"/><path d="M304.13168,133.34258v-31.73664h31.73664v31.73664z" fill="#00a759"/><path d="M333.83756,164.44958v-31.73664h31.73664v31.73664z" fill="#00a759"/><path d="M367.66109,164.94918v-31.73664h31.73664v31.73664z" fill="#00a759"/><path d="M430.73522,195.86832v-31.73664h31.73664v31.73664z" fill="#00a759"/><path d="M272.07286,133.49383v-31.73664h31.73664v31.73664z" fill="#b000bd"/><path d="M367.66109,288.77939v-31.73664h31.73664v31.73664z" fill="#00a759"/><path d="M333.83756,289.06682v-31.73664h31.73664v31.73664z" fill="#00a759"/><path d="M398.68848,164.94918v-31.73664h31.73664v31.73664z" fill="#00a759"/><path d="M431.38753,289.29514v-31.73664h31.73664v31.73664z" fill="#00a759"/><path d="M430.73522,260.16271v-31.73664h31.73664v31.73664z" fill="#00a759"/><path d="M398.68848,289.4717v-31.73664h31.73664v31.73664z" fill="#00a759"/><path d="M430.73522,228.75851v-31.73664h31.73664v31.73664z" fill="#00a759"/><path d="M209.13168,163.68597v-31.73664h31.73664v31.73664z" fill="#00a759"/><path d="M238.75727,134.76484v-31.73664h31.73664v31.73664z" fill="#0021fe"/><path d="M368.12805,387.62809v-31.73664h31.73664v31.73664z" fill="#ff9f00"/><path d="M145.96414,129.34771h31.73664v31.73664h-31.73664z" fill="#6f0000"/></g></g></svg>