<svg version="1.1" xmlns="http://www.w3.org/2000/svg" xmlns:xlink="http://www.w3.org/1999/xlink" width="383.60944" height="221.22257" viewBox="0,0,383.60944,221.22257"><g transform="translate(-81.3885,-69.02074)"><g stroke="#000000" stroke-width="0" stroke-miterlimit="10"><path d="M240.97878,290.24332v-31.73664h31.73664v31.73664z" fill="#00a759"/><path d="M208.91996,290.24332v-31.73664h31.73664v31.73664z" fill="#00a759"/><path d="M177.44937,289.05742v-31.73664h31.73664v31.73664z" fill="#00a759"/><path d="M145.97878,227.00802v-31.73664h31.73664v31.73664z" fill="#00a759"/><path d="M145.97878,196.41978v-31.73664h31.73664v31.73664z" fill="#00a759"/><path d="M145.97878,134.78677v-31.73664h31.73664v31.73664z" fill="#00a759"/><path d="M177.44937,102.55917v-31.73664h31.73664v31.73664z" fill="#00a759"/><path d="M208.91996,102.59625v-31.73664h31.73664v31.73664z" fill="#00a759"/><path d="M240.97878,102.02009v-31.73664h31.73664v31.73664z" fill="#00a759"/><path d="M270.68466,101.80458v-31.73664h31.73664v31.73664z" fill="#00a759"/><path d="M299.6599,163.78909v-31.73664h31.73664v31.73664z" fill="#00a759"/><path d="M396.93652,288.98582v-31.73664h31.73664v31.73664z" fill="#00a759"/><path d="M367.58232,198.09823v-31.73664h31.73664v31.73664z" fill="#b000bd"/><path d="M304.50819,289.45619v-31.73664h31.73664v31.73664z" fill="#00a759"/><path d="M270.68466,289.06683v-31.73664h31.73664v31.73664z" fill="#00a759"/><path d="M299.6599,100.75739v-31.73664h31.73664v31.73664z" fill="#00a759"/><path d="M367.58232,289.12757v-31.73664h31.73664v31.73664z" fill="#00a759"/><path d="M335.53558,288.57964v-31.73664h31.73664v31.73664z" fill="#00a759"/><path d="M335.53558,101.91007v-31.73664h31.73664v31.73664z" fill="#00a759"/><path d="M367.58232,102.79776v-31.73664h31.73664v31.73664z" fill="#00a759"/><path d="M429.00763,134.11599v-31.73664h31.73664v31.73664z" fill="#00a759"/><path d="M429.00763,168.03658v-31.73664h31.73664v31.73664z" fill="#00a759"/><path d="M433.2613,198.09823v-31.73664h31.73664v31.73664z" fill="#00a759"/><path d="M396.93652,104.24897v-31.73664h31.73664v31.73664z" fill="#00a759"/><path d="M433.2613,229.12192v-31.73664h31.73664v31.73664z" fill="#00a759"/><path d="M240.97878,224.21299v-31.73664h31.73664v31.73664z" fill="#00a759"/><path d="M367.58232,228.58065v-31.73664h31.73664v31.73664z" fill="#00a759"/><path d="M270.68466,224.18592v-31.73664h31.73664v31.73664z" fill="#00a759"/><path d="M299.6599,224.21299v-31.73664h31.73664v31.73664z" fill="#00a759"/><path d="M299.6599,191.31662v-31.73664h31.73664v31.73664z" fill="#00a759"/><path d="M266.76354,163.78291v-31.73664h31.73664v31.73664z" fill="#00a759"/><path d="M240.97878,163.75583v-31.73664h31.73664v31.73664z" fill="#00a759"/><path d="M240.97878,194.66457v-31.73664h31.73664v31.73664z" fill="#00a759"/><path d="M270.68466,191.54393v-31.73664h31.73664v31.73664z" fill="#00a759"/><path d="M429.00763,260.72981v-31.73664h31.73664v31.73664z" fill="#00a759"/><path d="M145.97878,254.43648v-31.73664h31.73664v31.73664z" fill="#00a759"/><path d="M144.43199,165.30883v-31.73664h31.73664v31.73664z" fill="#00a759"/><path d="M396.93652,135.11703v-31.73664h31.73664v31.73664z" fill="#00a759"/><path d="M367.58232,198.09823v-31.73664h31.73664v31.73664z" fill="#ff0088"/><path d="M81.3885,133.21256h31.73664v31.73664h-31.73664z" fill="#6f0000"/><path d="M158.99918,132.30482v-31.73664h31.73664v31.73664z" fill="#0021fe"/></g></g></svg>